<svg id="undraw_interaction_design_odgc" xmlns="http://www.w3.org/2000/svg" xmlns:xlink="http://www.w3.org/1999/xlink" width="1044.305" height="1021.983" viewBox="0 0 1044.305 1021.983">
  <defs>
    <style>
      .cls-1 {
        opacity: 0.9;
      }

      .cls-2, .cls-7 {
        fill: #ada9e8;
      }

      .cls-10, .cls-15, .cls-2, .cls-4 {
        opacity: 0.1;
      }

      .cls-3 {
        fill: #3f3d56;
      }

      .cls-5 {
        fill: #fbbebe;
      }

      .cls-6 {
        fill: #65617d;
      }

      .cls-8 {
        fill: #b2b1bb;
      }

      .cls-14, .cls-9 {
        opacity: 0.2;
      }

      .cls-10 {
        fill: #ccc;
      }

      .cls-11 {
        fill: #464353;
      }

      .cls-12 {
        fill: #333f4f;
      }

      .cls-13 {
        fill: #2d394a;
        stroke: #40868e;
        stroke-miterlimit: 10;
      }

      .cls-16 {
        fill: url(#linear-gradient);
      }

      .cls-17 {
        fill: #514e7f;
      }

      .cls-18 {
        opacity: 0.15;
      }

      .cls-19 {
        fill: #945b79;
      }

      .cls-20 {
        fill: #ffc1c7;
      }

      .cls-21 {
        fill: #ff6584;
      }
    </style>
    <linearGradient id="linear-gradient" x1="0.5" y1="1" x2="0.5" gradientUnits="objectBoundingBox">
      <stop offset="0" stop-color="gray" stop-opacity="0.251"/>
      <stop offset="0.54" stop-color="gray" stop-opacity="0.122"/>
      <stop offset="1" stop-color="gray" stop-opacity="0.102"/>
    </linearGradient>
  </defs>
  <g id="Group_27" data-name="Group 27" class="cls-1" transform="translate(0 0)">
    <path id="Path_1" data-name="Path 1" class="cls-2" d="M1867.652,874.886v.365a.458.458,0,0,0,0,.182,15.438,15.438,0,0,1-.408,2.643c-1.16,7.168-2.539,14.367-4.2,21.566-11.316,49.177-34.48,97.9-65.48,141.943-1.222,1.7-2.445,3.4-3.7,5.073-2.382,3.311-4.8,6.561-7.272,9.811-1.724,2.217-3.448,4.435-5.235,6.652a478.728,478.728,0,0,1-39.307,43.649c-7.648,7.472-15.673,14.7-23.6,21.6l-3.511,3.037q-6.489,5.467-13.165,10.631c-1.912,1.488-3.855,3.038-5.8,4.4l-3.385,2.552-2.414,1.731c-2.163,1.61-4.357,3.038-6.583,4.708l-1.567,1.063c-5.235,3.615-10.5,7.108-15.861,10.479a392.256,392.256,0,0,1-35.389,19.744q-8.432,4.161-16.958,7.806-10.344,4.465-20.844,8.171c-1.881.7-3.793,1.337-5.7,2-5.36,1.792-10.783,3.463-16.174,4.981l-2.758.79-1.379.364h0l-3.323.881a437.928,437.928,0,0,1-49.024,9.9l-2.7.395-1.411.213c-20.97,3.037-41.877,4.556-62.69,5.559a812.64,812.64,0,0,1-86.042,0l-7.837-.516h-1.411c-5.422-.395-10.846-.881-16.237-1.427-3.135-.3-6.269-.638-9.4-1.033-4.764-.547-9.4-1.185-14.231-1.853h-.219l-4.545-.7c-4.107-.638-8.15-1.306-12.194-2.1l-4.138-.729-6.269-1.245-1.222-.243q-19.685-4.1-38.617-9.963l-2.883-.942q-13.729-4.435-26.957-9.872-9.811-4.1-19.277-8.718-13.541-6.652-26.393-14.307-17.961-10.662-34.793-22.964c-14.764-10.662-28.963-22.143-42.755-34.05l-2.852-2.491-5.2-4.556A823.633,823.633,0,0,1,908.4,893.324q-7.147-12.94-13.855-26.3c-1.379-2.734-2.727-5.467-4.075-8.232a6.509,6.509,0,0,1-.313-.668l-2.069-4.252c-5.642-11.786-10.971-23.845-15.986-36.055l-2.257-5.528-3.511-8.93-1.411-3.736q-6.488-17.01-12.1-34.476c-.627-2-1.285-4.01-1.912-6.075q-2.978-9.477-5.673-19.076c-1.662-5.893-3.135-11.877-4.733-17.921-.251-.942-.47-1.883-.689-2.855-12.538-51.273-17.9-106.677-5.172-162.9.846-3.827,1.787-7.654,2.852-11.451,1.5-5.68,3.134-11.36,5.2-17.04.439-1.337.909-2.673,1.379-4.009l.564-1.458a3.34,3.34,0,0,1,.345-1.033,2.022,2.022,0,0,0,.219-.608c1.1-2.795,2.194-5.589,3.385-8.414s2.445-5.619,3.73-8.414h0l.188-.395c0-.364.345-.7.5-1.063,1.034-2.187,2.1-4.374,3.135-6.5l1.128-2.187.313-1.094c.6-1.124,1.222-2.278,1.849-3.372a272.76,272.76,0,0,1,30.342-44.621,254.892,254.892,0,0,1,20.688-22.022A222.972,222.972,0,0,1,946.8,394.445q3.134-1.822,6.018-3.554a153.324,153.324,0,0,1,54.446-19.136c24.888-3.4,48.24.516,70.965,5.771l2.288.547c3.824.881,7.648,1.823,11.441,2.764,13.259,3.25,26.612,6.622,40.09,9.507,12.538,2.7,25.076,5.012,38.022,6.622a275.925,275.925,0,0,0,39.338,2.126c1.943,0,3.95,0,5.924-.182a219.746,219.746,0,0,0,70.526-15.005,136.246,136.246,0,0,0,45.889-29.373,100.864,100.864,0,0,0,7.084-7.9h0a91.531,91.531,0,0,0,9.968-15.187c.878-1.61,1.724-3.25,2.539-4.86h0c.313-.547.627-1.154.94-1.731h0l4.8-9.112h0c.188-.334.345-.668.533-.972,2.32-4.344,4.639-8.627,7.021-12.818a245.419,245.419,0,0,1,33.915-48.418h0a141.991,141.991,0,0,1,50.34-35.022c3.134-1.306,6.269-2.552,9.748-3.706a145.607,145.607,0,0,1,45.388-7.867h5.423a163,163,0,0,1,45.2,7.746h0a236.761,236.761,0,0,1,62.095,31.165,414.145,414.145,0,0,1,77.767,69.225c1.818,2.066,3.636,4.192,5.423,6.318a524.393,524.393,0,0,1,52,74.328c45.325,77.821,75.04,168.976,96.48,261.8l1.034,4.435c.5,2.187,1,4.374,1.473,6.531,1,4.5,2.006,9.112,2.946,13.456.721,3.311,1.442,6.652,2.132,9.963h0c.5,2.4,1,4.769,1.473,7.2.313,1.488.627,3.037.909,4.526a703.914,703.914,0,0,1,11.378,75.178,12.27,12.27,0,0,0,.219,2.825,400.421,400.421,0,0,1-2.319,93.251Z" transform="translate(-827.355 -206.94)"/>
    <path id="Path_2" data-name="Path 2" class="cls-3" d="M1084.1,507.156c-1.049-.277-2.861.954-5.187,2.966-1.125.954-2.374,2.146-3.729,3.443l-.639.62-.286.267c-1.793,1.726-3.757,3.633-5.836,5.559-1.3,1.2-2.632,2.413-4.015,3.6-1.821,1.573-2.861,5.893-3.357,11.805a129.588,129.588,0,0,1-14.914,3.109l-.82.124-.429.067c-.3-1.774-.515-2.937-.515-2.937s-8.582-7.162-6.084-16.106c1.44-5.13,15.525-14.733,27.282-22,1.44-.877,2.861-1.736,4.186-2.537l.868-.524c.543-.324,1.058-.639,1.573-.954l3.91-2.289c2.708-1.564,4.673-2.661,5.369-3.052l.286-.162S1086.778,507.861,1084.1,507.156Z" transform="translate(-117.257 13.551)"/>
    <path id="Path_3" data-name="Path 3" class="cls-4" d="M1084.1,507.156c-1.049-.277-2.861.954-5.187,2.966-1.125.954-2.374,2.146-3.729,3.443l-.639.62-.286.267c-1.793,1.726-3.757,3.633-5.836,5.559-1.3,1.2-2.632,2.413-4.015,3.6-1.821,1.573-2.861,5.893-3.357,11.805a129.588,129.588,0,0,1-14.914,3.109l-.82.124-.429.067c-.3-1.774-.515-2.937-.515-2.937s-8.582-7.162-6.084-16.106c1.44-5.13,15.525-14.733,27.282-22,1.44-.877,2.861-1.736,4.186-2.537l.868-.524c.543-.324,1.058-.639,1.573-.954l3.91-2.289c2.708-1.564,4.673-2.661,5.369-3.052l.286-.162S1086.778,507.861,1084.1,507.156Z" transform="translate(-117.257 13.551)"/>
    <path id="Path_4" data-name="Path 4" class="cls-3" d="M1079.664,494.329s-1.755,1.8-4.482,4.654c-1.144,1.192-2.47,2.575-3.9,4.091l-.134.143-.744.772c-1.7,1.793-3.528,3.729-5.407,5.722-9.746,10.432-20.769,22.648-20.769,24.593a6.329,6.329,0,0,1-.467,2.117l-.82.124-.429.067c-6.38.954-12.74,1.43-19.072,1.745a239.564,239.564,0,0,1-26.176,0l-2.384-.162h-.429c-1.65-.124-3.3-.276-4.94-.448-.954-.1-1.907-.2-2.861-.324,1.125-1.564,2.3-3.2,3.462-4.882,2.336-3.357,4.654-6.828,6.58-9.975.114-.181.219-.362.334-.534,1.154-1.907,2.155-3.709,2.928-5.264a14.059,14.059,0,0,0,1.554-4.406,24.075,24.075,0,0,1,1.707-5.464c4.205-10.68,15.2-32.422,21.341-44.428l.553-1.068.534-1.03c1.974-3.814,3.242-6.256,3.242-6.256l15.019-4.053.954-.257,3.318-.9,1.278-.343,7.1-1.907h.086l.258-.076,7.5-2.012,2.489-.677,2.861-.753,7.247,12.349,2.117,30.839Z" transform="translate(-114.882 15.64)"/>
    <path id="Path_5" data-name="Path 5" class="cls-4" d="M973.741,535.955c-2.937-3.814-4.644-6.151-4.644-6.151s4.167-1.011,9.6-2.546c2.775-.792,5.884-1.707,8.935-2.708,1.907-.639,3.814-1.306,5.636-1.984.954-.343,1.821-.706,2.67-1.058,3.948-1.659,6.914-3.347,7.514-4.854a3.137,3.137,0,0,0-.153-1.8,48.865,48.865,0,0,0-3.509-7.953c-.505-.954-1.058-1.993-1.65-3.071-1.907-3.481-4.186-7.467-6.675-11.672-2.088-3.509-4.329-7.181-6.6-10.862-2-3.233-4.034-6.484-6.027-9.631-.057-.1-.124-.191-.181-.3-9.088-14.361-17.251-26.7-17.584-27.168h0l-5.359,12.864-.229.21-8.821,7.829-.21.2c-2.746,2.432-5.865,5.216-9.04,8.058-2.355,2.107-4.768,4.244-7.009,6.3-3.252,2.918-6.294,5.674-8.764,7.934a70.259,70.259,0,0,0-5.922,5.722,61.89,61.89,0,0,0-3.815,10.308c4.2,3.738,8.516,7.343,13.007,10.7,3.423,2.556,6.942,4.968,10.585,7.2q3.919,2.4,8.029,4.491,2.861,1.44,5.865,2.737,4.015,1.716,8.2,3.1l.877.3a117.129,117.129,0,0,0,11.748,3.128l.372.076,1.907.391Z" transform="translate(-111.414 15.59)"/>
    <path id="Path_6" data-name="Path 6" class="cls-3" d="M1046.9,445.526l-.858,1.316c-.343.544-.791,1.24-1.335,2.069s-1.3,2.041-2.107,3.29l-.591.954c-1.392,2.155-3.013,4.682-4.768,7.476-.219.334-.439.668-.658,1.02s-.448.706-.677,1.058c-11.443,17.928-28.36,44.495-32.613,52.162a19.657,19.657,0,0,0-.954,1.8c-.544,1.364-2.994,2.861-6.38,4.358-.753.343-1.564.677-2.393,1.02-1.85.734-3.872,1.449-5.931,2.146-3,1.011-6.1,1.907-8.926,2.756-5.97,1.726-10.718,2.861-10.718,2.861s1.64,2.222,4.453,5.922l-1.907-.391-.372-.076q-5.989-1.287-11.748-3.128l-.877-.3q-4.177-1.392-8.2-3.1-2.985-1.287-5.865-2.737-4.12-2.088-8.029-4.491-5.464-3.347-10.585-7.209c-4.491-3.347-8.811-6.952-13.007-10.69l-.868-.782a65.063,65.063,0,0,1,3.6-9.536,83.8,83.8,0,0,1,6.885-6.58c2.527-2.317,5.569-5.064,8.764-7.934l7.009-6.284,8.287-7.4.21-.191,8.582-7.629.229-.21,5.369-12.874H961l19.52.305h3.07l6.122.1,7.286.1,8.477.134,33.233.515h1.078l6.3.1Z" transform="translate(-111.371 15.59)"/>
    <path id="Path_7" data-name="Path 7" class="cls-5" d="M1051.348,304.608l-3.223,29.3s-33.014,13.15-33.815,12.883S992.3,327.466,995.791,314.85c1.745-6.322,2.556-15.1,2.918-22.257s.305-12.635.305-12.635,48.042-17.165,43.742-5.369c-1.554,4.291-.858,9.431.677,14.228A66.517,66.517,0,0,0,1051.348,304.608Z" transform="translate(-115.288 23.653)"/>
    <path id="Path_8" data-name="Path 8" class="cls-4" d="M1043.592,288.764a12.308,12.308,0,0,1-.887.954A32.184,32.184,0,0,1,998.84,292.5c.362-7.1.305-12.635.305-12.635s48.042-17.165,43.742-5.369C1041.361,278.828,1042.057,283.968,1043.592,288.764Z" transform="translate(-115.448 23.657)"/>
    <path id="Path_9" data-name="Path 9" class="cls-5" d="M1050.937,264.823a32,32,0,1,1-9.369-22.836,32.193,32.193,0,0,1,9.369,22.836Z" transform="translate(-114.878 25.409)"/>
    <path id="Path_10" data-name="Path 10" class="cls-4" d="M1011.052,336.76s-12.607-27.96-16.907-27.96-11,144.613-11,144.613l65.8,1.039,2.689-75.935-13.427-67.3S1026.09,337.789,1011.052,336.76Z" transform="translate(-114.72 21.873)"/>
    <path id="Path_11" data-name="Path 11" class="cls-4" d="M1011.052,339.009s-12.607-27.96-16.907-27.96-11,144.623-11,144.623l74.619,1.125-6.17-76.03-13.427-67.3S1026.09,340.049,1011.052,339.009Z" transform="translate(-114.72 21.769)"/>
    <path id="Path_12" data-name="Path 12" class="cls-6" d="M1011.052,337.88s-12.607-27.95-16.907-27.95-11,144.613-11,144.613l74.619,1.125-6.17-76.059-13.427-67.3S1026.09,338.919,1011.052,337.88Z" transform="translate(-114.72 21.821)"/>
    <path id="Path_13" data-name="Path 13" class="cls-4" d="M995.569,300.6s-2.25-3.3-5.474-2.222-5.636-1.907-8.859,1.068-16.106,6.98-18.519,5.636-11,4.568-12.883,8.058-8.058,12.883-8.058,12.883-5.359,6.437-4.558,9.927-1.907,7.514-5.1,9.126-9.66,17.718-9.66,17.718,1.736,21.532-5.512,25.289-1.907,20.13-1.907,20.13l34.234-8.115,9.689-21.99s-3.757,64.416-8.325,70.318-5.092,9.669-5.092,9.669,17.708,3.757,21.465,6.971,13.694-.8,13.694-.8l9.66-85.624s3.49-16.1,3.49-24.422S995.569,300.6,995.569,300.6Z" transform="translate(-111.472 22.371)"/>
    <path id="Path_14" data-name="Path 14" class="cls-7" d="M994.456,300.6s-2.26-3.3-5.483-2.222-5.636-1.907-8.859,1.068-16.1,6.98-18.519,5.636-11,4.568-12.883,8.058-8.048,12.883-8.048,12.883-5.369,6.437-4.568,9.927-1.907,7.514-5.092,9.126-9.669,17.718-9.669,17.718,1.736,21.532-5.512,25.289c-1.812.954-2.861,3.032-3.347,5.645-2.079,10.49,6.542,20.14,17.26,19.806l18.443-7.629,9.66-27.8s-3.757,64.416-8.315,70.318-5.092,9.65-5.092,9.65,17.718,3.757,21.475,6.971,13.684-.8,13.684-.8l9.66-85.624s3.49-16.1,3.49-24.422S994.456,300.6,994.456,300.6Z" transform="translate(-111.426 22.371)"/>
    <path id="Path_15" data-name="Path 15" class="cls-4" d="M936.42,349.61s3.223,8.859,12.082,8.058S936.42,349.61,936.42,349.61Z" transform="translate(-112.552 19.98)"/>
    <path id="Path_16" data-name="Path 16" class="cls-4" d="M945.43,335.54s5.9,1.078,8.048,6.17S945.43,335.54,945.43,335.54Z" transform="translate(-112.97 20.632)"/>
    <path id="Path_17" data-name="Path 17" class="cls-4" d="M962.722,326c0,1.078,3.757,19.863,0,27.654s-3.223,16.907-3.223,16.907Z" transform="translate(-113.621 21.075)"/>
    <path id="Path_18" data-name="Path 18" class="cls-4" d="M1044.975,293.832s2.107-2.47,4.253-2.2,3.49,1.612,6.179,2.689,9.116,1.335,9.116,2.146,5.645,4.024,9.4,4.825,15.563,8.859,18.519,24.431,8.048,20.13,8.048,20.13L1072.048,359.8s22.009,93.4,24.689,100.128,2.956,46.431,2.956,46.431-17.451,7.781-22.009,10.2-2.689-23.087-12.082-37.848-20.13-36.237-20.13-36.237l-16.373-45.9s-10.49-61.192-1.612-72.473S1045.738,297.866,1044.975,293.832Z" transform="translate(-116.612 22.671)"/>
    <path id="Path_19" data-name="Path 19" class="cls-7" d="M1100.754,505.8v.553l-1.039.467-.734.324-7.286,3.3c-4,1.821-8.411,3.814-11.2,5.226-.7.334-1.287.639-1.745.887a1.011,1.011,0,0,1-1.087,0c-1.43-.954-2.079-5.8-3.09-12.111-.419-2.613-.9-5.474-1.526-8.4-.1-.458-.2-.954-.305-1.373a67.448,67.448,0,0,0-2.727-9.174,38.4,38.4,0,0,0-3.347-6.79c-1.24-1.907-2.489-3.986-3.738-6.084-3.357-5.645-6.675-11.663-9.46-16.821-.191-.372-.381-.725-.572-1.078-.706-1.316-1.373-2.565-1.974-3.729-1.249-2.384-2.3-4.406-3.052-5.874l-1.211-2.394a2.231,2.231,0,0,0-.124-.248l-1.478-4.139-2.861-7.991-3.328-9.336-1.573-4.4-1.135-3.195-.362-1.011-5.645-15.839s-.4-2.3-.954-6.084c-1.5-9.956-4.215-30.2-4.205-46.059a85.865,85.865,0,0,1,.667-11.567c.067-.42.124-.83.2-1.23s.153-.877.238-1.3a15.431,15.431,0,0,1,2.451-6.227c8.849-11.272,18.29-26.243,17.489-30.267l.181-.2a8.812,8.812,0,0,1,1.3-1.125,5.083,5.083,0,0,1,1.907-.858,3.243,3.243,0,0,1,.858,0h0c2.146.267,3.49,1.612,6.17,2.689s9.126,1.335,9.126,2.146,5.636,4.024,9.393,4.835,15.572,8.849,18.519,24.422c2.861,15,7.686,19.778,8.039,20.121h0l-1.058.515-16.144,7.924L1080.871,356l-7.791,3.814s2.041,8.649,4.949,20.874a2.6,2.6,0,0,0,.124.505c.086.362.172.734.267,1.106,2.136,8.964,4.692,19.644,7.238,30.181l.229.954.744,3.052c.229.954.467,1.907.7,2.861l.372,1.516c.706,2.918,1.411,5.8,2.1,8.582,1.02,4.129,1.993,8.048,2.861,11.634,2.479,9.879,4.4,17.117,5.083,18.815.954,2.46,1.64,9.374,2.079,17.165C1100.573,488.977,1100.735,502.89,1100.754,505.8Z" transform="translate(-116.662 22.67)"/>
    <path id="Path_20" data-name="Path 20" class="cls-4" d="M1105.589,413.384c-.792.134-1.8.248-2.975.362-8.582.782-25.471.954-25.471.954s-12.616-24.965-23.354-24.155c0,0,9.927-11.272,13.961-9.927.667.219,1.087-.277,1.3-1.24,1.068-4.768-2.641-21.313-2.641-21.313l-5.1-22.276,29.562,7.247c2.689.534,11,4.835,11,4.835s.267,11.539,2.413,14.218,4.568,15.572,4.3,18.8,2.947,18.252-.267,22.276S1112.3,412.278,1105.589,413.384Z" transform="translate(-117.998 20.621)"/>
    <path id="Path_21" data-name="Path 21" class="cls-7" d="M1106.719,413.384c-.8.134-1.8.248-2.975.362-8.582.782-25.48.954-25.48.954s-12.616-24.965-23.344-24.155c0,0,9.927-11.272,13.951-9.927.677.219,1.1-.277,1.3-1.24,1.078-4.768-2.641-21.313-2.641-21.313l-5.092-22.276L1092,343.037c2.68.534,11,4.835,11,4.835s.267,11.539,2.413,14.218,4.558,15.572,4.291,18.8,2.956,18.252-.267,22.276S1113.423,412.278,1106.719,413.384Z" transform="translate(-118.05 20.621)"/>
    <path id="Path_22" data-name="Path 22" class="cls-4" d="M1077.43,355.8s24.7,2.689,25.747,8.859S1077.43,355.8,1077.43,355.8Z" transform="translate(-119.095 19.692)"/>
    <path id="Path_23" data-name="Path 23" class="cls-4" d="M1051.276,264.824a32,32,0,0,1-8.8,22.1.459.459,0,0,1-.076-.153c-.954-2.041-1.907-4.158-1.793-6.4.086-2.7,1.64-5.14,2.146-7.81.639-3.376-.467-6.8-1.554-10.051-.791-2.384-2.327-5.273-4.825-4.978a6.58,6.58,0,0,1-1.478.172c-1.335-.21-1.6-1.907-1.745-3.28a14.867,14.867,0,0,0-12.139-12.731,3.748,3.748,0,0,0-2.127.143c-.954.42-1.43,1.421-2.27,2-2.727,1.907-6.2-1.726-9.536-1.449-2.861.238-4.53,3.118-5.722,5.722s-2.613,5.5-5.369,6.1a1.631,1.631,0,0,1-1.306-.143c-.858-.629-.267-1.907.181-2.928,1.125-2.546.372-4.577-1.011-6.4a32.193,32.193,0,0,1,57.359,20.1Z" transform="translate(-115.216 25.407)"/>
    <path id="Path_24" data-name="Path 24" class="cls-8" d="M943.657,525.444q-4.12-2.088-8.029-4.491-5.464-3.347-10.585-7.209l-3.29-26.7-.1-.877L915.4,435.358l-.372-3,10.375-.315,7.343-.219.5,4.32,4.177,35.808.1.858Z" transform="translate(-111.559 16.165)"/>
    <path id="Path_25" data-name="Path 25" class="cls-4" d="M935.628,520.944q-5.464-3.347-10.585-7.209l-3.29-26.7-.1-.877L915.4,435.349l-.372-3,10.375-.315-.448,1.659.257,2.088,5.2,42.445.1.877Z" transform="translate(-111.559 16.155)"/>
    <path id="Path_26" data-name="Path 26" class="cls-8" d="M1010.134,432.92l-.563,4.549-.868,6.895-1.907,15.191-.134,1.049-.133,1.078-5.207,41.625-1.612,12.94-.534,4.244-.057.5-2.1,16.907-2.384-.162h-.429c-1.65-.124-3.3-.277-4.94-.448-.954-.1-1.907-.2-2.861-.324-1.45-.172-2.861-.372-4.329-.582h-.067l-1.383-.219,1.306-9.422v-.324l6.1-45.639,2.584-19.329.143-1.068.143-1.068,2.031-15.181.858-6.37.5-3.757.62-.048Z" transform="translate(-114.603 16.114)"/>
    <path id="Path_27" data-name="Path 27" class="cls-9" d="M1001.273,435.392l-.267,2.279-.782,6.608-1.793,15.191-.124,1.058-.162,1.125L994.6,491.731l-3.814,32.022v.372l-.954,7.991-.61,5.207c-.954-.1-1.907-.2-2.861-.324-1.45-.172-2.861-.372-4.329-.582h-.067l-1.383-.219,1.354-9.412v-.324l6.1-45.639,2.584-19.329.143-1.068.143-1.068,2.031-15.181.858-6.37.5-3.757.62-.048Z" transform="translate(-114.601 16.064)"/>
    <path id="Path_28" data-name="Path 28" class="cls-6" d="M1082.067,522.16l.41,2.775q-2.565,1.306-5.159,2.451-3.147,1.4-6.341,2.565l-1.593-12.568-1.049-8.191-1.8-14.142-1.735-13.656-.3-2.279-4.224-33.147-.744-5.817-.229-1.907-.219-1.716-.505-3.967h.343l7.257-.791,2.327-.238.725,4.854,1.03,6.9,6.809,45.487,1.449,9.679,1.354,9.05,2.117,14.17Z" transform="translate(-118.22 16.178)"/>
    <path id="Path_29" data-name="Path 29" class="cls-10" d="M1082.067,522.16l.41,2.775q-2.565,1.306-5.159,2.451-3.147,1.4-6.341,2.565l-1.593-12.568-1.049-8.191-1.8-14.142-1.735-13.656-.3-2.279-4.224-33.147-.744-5.817-.229-1.907-.219-1.716-.505-3.967h.343l7.257-.791,2.327-.238.725,4.854,1.03,6.9,6.809,45.487,1.449,9.679,1.354,9.05,2.117,14.17Z" transform="translate(-118.22 16.178)"/>
    <path id="Path_30" data-name="Path 30" class="cls-8" d="M1082.847,524.935q-2.565,1.306-5.159,2.451l-1.087-9.479-.725-6.351-1.02-8.878-.172-1.516-1.154-10.108-5.388-47.1-.868-7.543-.277-2.479-.448-2.174,2.327-.238.725,4.854,1.03,6.9,6.809,45.487,1.449,9.679,1.354,9.05,2.117,14.17.076.5Z" transform="translate(-118.59 16.179)"/>
    <path id="Path_31" data-name="Path 31" class="cls-6" d="M1106.964,432.015l-.057,3.652-1.144,75.2c-.582.467-1.173.954-1.764,1.383v.553l-1.039.467-.734.324c-.658.505-1.326.954-2,1.478l-.477.334c-1.593,1.135-3.194,2.231-4.825,3.29v-2.3l.954-64.845.057-3.986.172-11.691.076-5.2,7.228.906Z" transform="translate(-119.906 16.218)"/>
    <path id="Path_32" data-name="Path 32" class="cls-10" d="M1106.964,432.015l-.057,3.652-1.144,75.2c-.582.467-1.173.954-1.764,1.383v.553l-1.039.467-.734.324c-.658.505-1.326.954-2,1.478l-.477.334c-1.593,1.135-3.194,2.231-4.825,3.29v-2.3l.954-64.845.057-3.986.172-11.691.076-5.2,7.228.906Z" transform="translate(-119.906 16.218)"/>
    <path id="Path_33" data-name="Path 33" class="cls-8" d="M1107.355,432.057l-.057,3.652-1.144,75.2c-.582.467-1.173.954-1.764,1.383v.553l-1.039.467v-.219l.172-29.562.286-47.785V431.59Z" transform="translate(-120.297 16.176)"/>
    <path id="Path_34" data-name="Path 34" class="cls-6" d="M1144.756,426.643a.141.141,0,0,0,0,.057,4.978,4.978,0,0,1-.124.83c-.353,2.25-.772,4.511-1.278,6.771l-47.918.877-3.481.067-7.276.134-3.061.057h-1.068l-21.1.391h-2.327l-7.629.143h-.162l-5.855.114-9.45.172h-1.058l-29.562.544-8.582.153-7.209.134-6.284.114h-3.442l-4.768.086-21.713-.954-1.068-.048-20.2-.868-8.029-.353-9.813-.429-59.342-2.565q-2.174-4.062-4.215-8.258c-.42-.858-.83-1.716-1.24-2.584l60.4-.954h0l37.19-.572h0l7.028-.1H953.2l19.072-.3,6.532.362h.114l3.28.181,1.068.057,13.026.725h0l31.669,1.745,1.1.057,14.8.82,4.472.248h.1l29.562,1.631,1.087.067h.238Z" transform="translate(-108.426 16.746)"/>
    <path id="Path_35" data-name="Path 35" class="cls-8" d="M1144.755,426.645a.122.122,0,0,1,0,.057,4.977,4.977,0,0,1-.124.83c-.353,2.25-.772,4.511-1.278,6.771l-47.918.877-3.471.067-7.285.134-3.061.057h-1.068l-21.1.391h-2.327l-7.629.143h-.162l-5.855.114-9.45.172h-1.058l-29.561.544-8.582.153-7.209.134-6.284.114h-3.442l-4.768.086-21.723-.954h-1.068l-20.188-.877-8.039-.343-9.812-.42-59.342-2.575q-2.174-4.062-4.215-8.258c-.42-.858-.83-1.716-1.24-2.584l60.4-.954h0l37.19-.572h0l7.028-.1h1.078l19.072-.3,6.532.362h.124l3.28.181,1.068.067,13.026.715h0l31.669,1.745,1.087.057,14.8.82,4.472.248h.1l29.562,1.631,1.087.067h.238Z" transform="translate(-108.425 16.743)"/>
    <path id="Path_36" data-name="Path 36" class="cls-4" d="M1144.754,426.648a.122.122,0,0,1,0,.057l-65.236.162h-1.068l-29.724.076h-19.139l-47.089.114h-4.072l-25.986.067h-1.068l-27.13.067-75.535-3.261c-.42-.858-.83-1.716-1.24-2.584l60.4-.954h0l37.19-.572h0l7.028-.1h1.078l19.072-.3,6.532.362h.124l3.28.181,1.068.067,13.026.715h0l31.669,1.745,1.087.057,14.8.82,4.472.248h.1l29.561,1.631,1.087.067h.238Z" transform="translate(-108.424 16.74)"/>
    <path id="Path_37" data-name="Path 37" class="cls-4" d="M1092.91,381.14c1.611.534,11,2.947,12.883,8.582S1092.91,381.14,1092.91,381.14Z" transform="translate(-119.813 18.516)"/>
    <path id="Path_38" data-name="Path 38" class="cls-5" d="M1059.1,390.834s-13.684,4.158-19.864,4.158-30.324-.134-30.324-.134-63.081-21.075-44.152,7.781,48.843,12.75,48.843,12.75,2.422.534,5.369,1.211,59.991.134,61.87-2.146S1059.1,390.834,1059.1,390.834Z" transform="translate(-113.702 18.224)"/>
    <path id="Path_39" data-name="Path 39" class="cls-4" d="M1102.624,415.868c-8.582.782-25.471.954-25.471.954s-12.616-24.965-23.354-24.155c0,0,9.927-11.272,13.961-9.927.667.219,1.087-.277,1.3-1.24,10.49,3.214,30.515,11.071,32.518,24.851C1102.09,410.079,1102.424,413.207,1102.624,415.868Z" transform="translate(-117.998 18.5)"/>
    <path id="Path_40" data-name="Path 40" class="cls-11" d="M1103.744,415.868c-8.582.782-25.48.954-25.48.954s-12.616-24.965-23.344-24.155c0,0,9.927-11.272,13.951-9.927.677.219,1.1-.277,1.3-1.24,10.49,3.214,30.515,11.071,32.527,24.851C1103.22,410.079,1103.554,413.207,1103.744,415.868Z" transform="translate(-118.05 18.5)"/>
    <path id="Path_41" data-name="Path 41" class="cls-4" d="M1102.624,415.868c-8.582.791-25.471.954-25.471.954s-12.616-24.965-23.354-24.155c0,0,9.927-11.272,13.961-9.937.667.229,1.087-.267,1.3-1.23,10.49,3.214,30.515,11.071,32.518,24.851C1102.09,410.089,1102.424,413.217,1102.624,415.868Z" transform="translate(-117.998 18.5)"/>
    <path id="Path_42" data-name="Path 42" class="cls-4" d="M1027.05,492.7s24.155-5.912,27.912-2.689S1027.05,492.7,1027.05,492.7Z" transform="translate(-116.757 13.509)"/>
    <path id="Path_43" data-name="Path 43" class="cls-4" d="M954.43,517.08s10.2,5.9,11.272,10.738S954.43,517.08,954.43,517.08Z" transform="translate(-113.387 12.209)"/>
    <path id="Path_44" data-name="Path 44" class="cls-12" d="M909.16,307V412.773c0,1.821.954,2.079,2.565,2.956,5.369,2.975,18.586,8.277,34.454-.114,1.631-.858,2.632-1.144,2.632-2.994V307.658S928.642,315.792,909.16,307Z" transform="translate(-111.287 21.957)"/>
    <ellipse id="Ellipse_2" data-name="Ellipse 2" class="cls-13" cx="19.825" cy="4.215" rx="19.825" ry="4.215" transform="translate(797.873 324.656)"/>
    <g id="Group_2" data-name="Group 2" class="cls-14" transform="translate(799.227 372.422)">
      <circle id="Ellipse_3" data-name="Ellipse 3" cx="0.448" cy="0.448" r="0.448"/>
      <circle id="Ellipse_4" data-name="Ellipse 4" cx="0.448" cy="0.448" r="0.448" transform="translate(2.26 0.629)"/>
      <circle id="Ellipse_5" data-name="Ellipse 5" cx="0.448" cy="0.448" r="0.448" transform="translate(5.045 1.516)"/>
      <circle id="Ellipse_6" data-name="Ellipse 6" cx="0.448" cy="0.448" r="0.448" transform="translate(10.051 2.594)"/>
      <circle id="Ellipse_7" data-name="Ellipse 7" cx="0.448" cy="0.448" r="0.448" transform="translate(15.324 3.233)"/>
      <circle id="Ellipse_8" data-name="Ellipse 8" cx="0.448" cy="0.448" r="0.448" transform="translate(20.788 3.49)"/>
      <circle id="Ellipse_9" data-name="Ellipse 9" cx="0.448" cy="0.448" r="0.448" transform="translate(28.627 2.413)"/>
      <circle id="Ellipse_10" data-name="Ellipse 10" cx="0.448" cy="0.448" r="0.448" transform="translate(26.033 3.042)"/>
      <circle id="Ellipse_11" data-name="Ellipse 11" cx="0.448" cy="0.448" r="0.448" transform="translate(33.481 1.516)"/>
      <circle id="Ellipse_12" data-name="Ellipse 12" cx="0.448" cy="0.448" r="0.448" transform="translate(31.145 1.964)"/>
      <circle id="Ellipse_13" data-name="Ellipse 13" cx="0.448" cy="0.448" r="0.448" transform="translate(36.046 0.629)"/>
      <circle id="Ellipse_14" data-name="Ellipse 14" cx="0.448" cy="0.448" r="0.448" transform="translate(7.6 2.155)"/>
      <circle id="Ellipse_15" data-name="Ellipse 15" cx="0.448" cy="0.448" r="0.448" transform="translate(12.769 3.042)"/>
      <circle id="Ellipse_16" data-name="Ellipse 16" cx="0.448" cy="0.448" r="0.448" transform="translate(18.366 3.49)"/>
      <circle id="Ellipse_17" data-name="Ellipse 17" cx="0.448" cy="0.448" r="0.448" transform="translate(23.459 3.49)"/>
    </g>
    <g id="Group_3" data-name="Group 3" class="cls-14" transform="translate(799.227 374.605)">
      <circle id="Ellipse_18" data-name="Ellipse 18" cx="0.448" cy="0.448" r="0.448"/>
      <circle id="Ellipse_19" data-name="Ellipse 19" cx="0.448" cy="0.448" r="0.448" transform="translate(2.26 0.639)"/>
      <circle id="Ellipse_20" data-name="Ellipse 20" cx="0.448" cy="0.448" r="0.448" transform="translate(5.045 1.526)"/>
      <circle id="Ellipse_21" data-name="Ellipse 21" cx="0.448" cy="0.448" r="0.448" transform="translate(10.051 2.603)"/>
      <circle id="Ellipse_22" data-name="Ellipse 22" cx="0.448" cy="0.448" r="0.448" transform="translate(15.324 3.242)"/>
      <circle id="Ellipse_23" data-name="Ellipse 23" cx="0.448" cy="0.448" r="0.448" transform="translate(20.788 3.49)"/>
      <circle id="Ellipse_24" data-name="Ellipse 24" cx="0.448" cy="0.448" r="0.448" transform="translate(28.627 2.413)"/>
      <circle id="Ellipse_25" data-name="Ellipse 25" cx="0.448" cy="0.448" r="0.448" transform="translate(26.033 3.052)"/>
      <circle id="Ellipse_26" data-name="Ellipse 26" cx="0.448" cy="0.448" r="0.448" transform="translate(33.481 1.526)"/>
      <circle id="Ellipse_27" data-name="Ellipse 27" cx="0.448" cy="0.448" r="0.448" transform="translate(31.145 1.974)"/>
      <circle id="Ellipse_28" data-name="Ellipse 28" cx="0.448" cy="0.448" r="0.448" transform="translate(36.046 0.639)"/>
      <circle id="Ellipse_29" data-name="Ellipse 29" cx="0.448" cy="0.448" r="0.448" transform="translate(7.6 2.155)"/>
      <circle id="Ellipse_30" data-name="Ellipse 30" cx="0.448" cy="0.448" r="0.448" transform="translate(12.769 3.052)"/>
      <circle id="Ellipse_31" data-name="Ellipse 31" cx="0.448" cy="0.448" r="0.448" transform="translate(18.366 3.49)"/>
      <circle id="Ellipse_32" data-name="Ellipse 32" cx="0.448" cy="0.448" r="0.448" transform="translate(23.459 3.49)"/>
    </g>
    <g id="Group_4" data-name="Group 4" class="cls-14" transform="translate(799.227 376.799)">
      <circle id="Ellipse_33" data-name="Ellipse 33" cx="0.448" cy="0.448" r="0.448"/>
      <circle id="Ellipse_34" data-name="Ellipse 34" cx="0.448" cy="0.448" r="0.448" transform="translate(2.26 0.629)"/>
      <circle id="Ellipse_35" data-name="Ellipse 35" cx="0.448" cy="0.448" r="0.448" transform="translate(5.045 1.526)"/>
      <circle id="Ellipse_36" data-name="Ellipse 36" cx="0.448" cy="0.448" r="0.448" transform="translate(10.051 2.603)"/>
      <circle id="Ellipse_37" data-name="Ellipse 37" cx="0.448" cy="0.448" r="0.448" transform="translate(15.324 3.242)"/>
      <circle id="Ellipse_38" data-name="Ellipse 38" cx="0.448" cy="0.448" r="0.448" transform="translate(20.788 3.49)"/>
      <circle id="Ellipse_39" data-name="Ellipse 39" cx="0.448" cy="0.448" r="0.448" transform="translate(28.627 2.413)"/>
      <circle id="Ellipse_40" data-name="Ellipse 40" cx="0.448" cy="0.448" r="0.448" transform="translate(26.033 3.042)"/>
      <circle id="Ellipse_41" data-name="Ellipse 41" cx="0.448" cy="0.448" r="0.448" transform="translate(33.481 1.526)"/>
      <circle id="Ellipse_42" data-name="Ellipse 42" cx="0.448" cy="0.448" r="0.448" transform="translate(31.145 1.964)"/>
      <circle id="Ellipse_43" data-name="Ellipse 43" cx="0.448" cy="0.448" r="0.448" transform="translate(36.046 0.629)"/>
      <circle id="Ellipse_44" data-name="Ellipse 44" cx="0.448" cy="0.448" r="0.448" transform="translate(7.6 2.155)"/>
      <circle id="Ellipse_45" data-name="Ellipse 45" cx="0.448" cy="0.448" r="0.448" transform="translate(12.769 3.042)"/>
      <circle id="Ellipse_46" data-name="Ellipse 46" cx="0.448" cy="0.448" r="0.448" transform="translate(18.366 3.49)"/>
      <circle id="Ellipse_47" data-name="Ellipse 47" cx="0.448" cy="0.448" r="0.448" transform="translate(23.459 3.49)"/>
    </g>
    <g id="Group_5" data-name="Group 5" class="cls-14" transform="translate(799.227 378.992)">
      <circle id="Ellipse_48" data-name="Ellipse 48" cx="0.448" cy="0.448" r="0.448"/>
      <circle id="Ellipse_49" data-name="Ellipse 49" cx="0.448" cy="0.448" r="0.448" transform="translate(2.26 0.629)"/>
      <circle id="Ellipse_50" data-name="Ellipse 50" cx="0.448" cy="0.448" r="0.448" transform="translate(5.045 1.516)"/>
      <circle id="Ellipse_51" data-name="Ellipse 51" cx="0.448" cy="0.448" r="0.448" transform="translate(10.051 2.594)"/>
      <circle id="Ellipse_52" data-name="Ellipse 52" cx="0.448" cy="0.448" r="0.448" transform="translate(15.324 3.233)"/>
      <circle id="Ellipse_53" data-name="Ellipse 53" cx="0.448" cy="0.448" r="0.448" transform="translate(20.788 3.481)"/>
      <circle id="Ellipse_54" data-name="Ellipse 54" cx="0.448" cy="0.448" r="0.448" transform="translate(28.627 2.403)"/>
      <circle id="Ellipse_55" data-name="Ellipse 55" cx="0.448" cy="0.448" r="0.448" transform="translate(26.033 3.042)"/>
      <circle id="Ellipse_56" data-name="Ellipse 56" cx="0.448" cy="0.448" r="0.448" transform="translate(33.481 1.516)"/>
      <circle id="Ellipse_57" data-name="Ellipse 57" cx="0.448" cy="0.448" r="0.448" transform="translate(31.145 1.964)"/>
      <circle id="Ellipse_58" data-name="Ellipse 58" cx="0.448" cy="0.448" r="0.448" transform="translate(36.046 0.629)"/>
      <circle id="Ellipse_59" data-name="Ellipse 59" cx="0.448" cy="0.448" r="0.448" transform="translate(7.6 2.146)"/>
      <circle id="Ellipse_60" data-name="Ellipse 60" cx="0.448" cy="0.448" r="0.448" transform="translate(12.769 3.042)"/>
      <circle id="Ellipse_61" data-name="Ellipse 61" cx="0.448" cy="0.448" r="0.448" transform="translate(18.366 3.481)"/>
      <circle id="Ellipse_62" data-name="Ellipse 62" cx="0.448" cy="0.448" r="0.448" transform="translate(23.459 3.481)"/>
    </g>
    <g id="Group_6" data-name="Group 6" class="cls-14" transform="translate(799.227 381.176)">
      <circle id="Ellipse_63" data-name="Ellipse 63" cx="0.448" cy="0.448" r="0.448"/>
      <circle id="Ellipse_64" data-name="Ellipse 64" cx="0.448" cy="0.448" r="0.448" transform="translate(2.26 0.629)"/>
      <circle id="Ellipse_65" data-name="Ellipse 65" cx="0.448" cy="0.448" r="0.448" transform="translate(5.045 1.526)"/>
      <circle id="Ellipse_66" data-name="Ellipse 66" cx="0.448" cy="0.448" r="0.448" transform="translate(10.051 2.603)"/>
      <circle id="Ellipse_67" data-name="Ellipse 67" cx="0.448" cy="0.448" r="0.448" transform="translate(15.324 3.242)"/>
      <circle id="Ellipse_68" data-name="Ellipse 68" cx="0.448" cy="0.448" r="0.448" transform="translate(20.788 3.49)"/>
      <circle id="Ellipse_69" data-name="Ellipse 69" cx="0.448" cy="0.448" r="0.448" transform="translate(28.627 2.413)"/>
      <circle id="Ellipse_70" data-name="Ellipse 70" cx="0.448" cy="0.448" r="0.448" transform="translate(26.033 3.042)"/>
      <circle id="Ellipse_71" data-name="Ellipse 71" cx="0.448" cy="0.448" r="0.448" transform="translate(33.481 1.526)"/>
      <circle id="Ellipse_72" data-name="Ellipse 72" cx="0.448" cy="0.448" r="0.448" transform="translate(31.145 1.964)"/>
      <circle id="Ellipse_73" data-name="Ellipse 73" cx="0.448" cy="0.448" r="0.448" transform="translate(36.046 0.629)"/>
      <circle id="Ellipse_74" data-name="Ellipse 74" cx="0.448" cy="0.448" r="0.448" transform="translate(7.6 2.155)"/>
      <circle id="Ellipse_75" data-name="Ellipse 75" cx="0.448" cy="0.448" r="0.448" transform="translate(12.769 3.042)"/>
      <circle id="Ellipse_76" data-name="Ellipse 76" cx="0.448" cy="0.448" r="0.448" transform="translate(18.366 3.49)"/>
      <circle id="Ellipse_77" data-name="Ellipse 77" cx="0.448" cy="0.448" r="0.448" transform="translate(23.459 3.49)"/>
    </g>
    <g id="Group_7" data-name="Group 7" class="cls-14" transform="translate(799.227 383.369)">
      <circle id="Ellipse_78" data-name="Ellipse 78" cx="0.448" cy="0.448" r="0.448"/>
      <circle id="Ellipse_79" data-name="Ellipse 79" cx="0.448" cy="0.448" r="0.448" transform="translate(2.26 0.629)"/>
      <circle id="Ellipse_80" data-name="Ellipse 80" cx="0.448" cy="0.448" r="0.448" transform="translate(5.045 1.516)"/>
      <circle id="Ellipse_81" data-name="Ellipse 81" cx="0.448" cy="0.448" r="0.448" transform="translate(10.051 2.594)"/>
      <circle id="Ellipse_82" data-name="Ellipse 82" cx="0.448" cy="0.448" r="0.448" transform="translate(15.324 3.233)"/>
      <circle id="Ellipse_83" data-name="Ellipse 83" cx="0.448" cy="0.448" r="0.448" transform="translate(20.788 3.49)"/>
      <circle id="Ellipse_84" data-name="Ellipse 84" cx="0.448" cy="0.448" r="0.448" transform="translate(28.627 2.403)"/>
      <circle id="Ellipse_85" data-name="Ellipse 85" cx="0.448" cy="0.448" r="0.448" transform="translate(26.033 3.042)"/>
      <circle id="Ellipse_86" data-name="Ellipse 86" cx="0.448" cy="0.448" r="0.448" transform="translate(33.481 1.516)"/>
      <circle id="Ellipse_87" data-name="Ellipse 87" cx="0.448" cy="0.448" r="0.448" transform="translate(31.145 1.964)"/>
      <circle id="Ellipse_88" data-name="Ellipse 88" cx="0.448" cy="0.448" r="0.448" transform="translate(36.046 0.629)"/>
      <circle id="Ellipse_89" data-name="Ellipse 89" cx="0.448" cy="0.448" r="0.448" transform="translate(7.6 2.155)"/>
      <circle id="Ellipse_90" data-name="Ellipse 90" cx="0.448" cy="0.448" r="0.448" transform="translate(12.769 3.042)"/>
      <circle id="Ellipse_91" data-name="Ellipse 91" cx="0.448" cy="0.448" r="0.448" transform="translate(18.366 3.49)"/>
      <circle id="Ellipse_92" data-name="Ellipse 92" cx="0.448" cy="0.448" r="0.448" transform="translate(23.459 3.49)"/>
    </g>
    <g id="Group_8" data-name="Group 8" class="cls-14" transform="translate(799.227 385.553)">
      <circle id="Ellipse_93" data-name="Ellipse 93" cx="0.448" cy="0.448" r="0.448"/>
      <circle id="Ellipse_94" data-name="Ellipse 94" cx="0.448" cy="0.448" r="0.448" transform="translate(2.26 0.629)"/>
      <circle id="Ellipse_95" data-name="Ellipse 95" cx="0.448" cy="0.448" r="0.448" transform="translate(5.045 1.526)"/>
      <circle id="Ellipse_96" data-name="Ellipse 96" cx="0.448" cy="0.448" r="0.448" transform="translate(10.051 2.603)"/>
      <circle id="Ellipse_97" data-name="Ellipse 97" cx="0.448" cy="0.448" r="0.448" transform="translate(15.324 3.242)"/>
      <circle id="Ellipse_98" data-name="Ellipse 98" cx="0.448" cy="0.448" r="0.448" transform="translate(20.788 3.49)"/>
      <circle id="Ellipse_99" data-name="Ellipse 99" cx="0.448" cy="0.448" r="0.448" transform="translate(28.627 2.413)"/>
      <circle id="Ellipse_100" data-name="Ellipse 100" cx="0.448" cy="0.448" r="0.448" transform="translate(26.033 3.042)"/>
      <circle id="Ellipse_101" data-name="Ellipse 101" cx="0.448" cy="0.448" r="0.448" transform="translate(33.481 1.526)"/>
      <circle id="Ellipse_102" data-name="Ellipse 102" cx="0.448" cy="0.448" r="0.448" transform="translate(31.145 1.964)"/>
      <circle id="Ellipse_103" data-name="Ellipse 103" cx="0.448" cy="0.448" r="0.448" transform="translate(36.046 0.629)"/>
      <circle id="Ellipse_104" data-name="Ellipse 104" cx="0.448" cy="0.448" r="0.448" transform="translate(7.6 2.155)"/>
      <circle id="Ellipse_105" data-name="Ellipse 105" cx="0.448" cy="0.448" r="0.448" transform="translate(12.769 3.042)"/>
      <circle id="Ellipse_106" data-name="Ellipse 106" cx="0.448" cy="0.448" r="0.448" transform="translate(18.366 3.49)"/>
      <circle id="Ellipse_107" data-name="Ellipse 107" cx="0.448" cy="0.448" r="0.448" transform="translate(23.459 3.49)"/>
    </g>
    <g id="Group_9" data-name="Group 9" class="cls-14" transform="translate(799.227 387.746)">
      <circle id="Ellipse_108" data-name="Ellipse 108" cx="0.448" cy="0.448" r="0.448"/>
      <circle id="Ellipse_109" data-name="Ellipse 109" cx="0.448" cy="0.448" r="0.448" transform="translate(2.26 0.629)"/>
      <circle id="Ellipse_110" data-name="Ellipse 110" cx="0.448" cy="0.448" r="0.448" transform="translate(5.045 1.516)"/>
      <circle id="Ellipse_111" data-name="Ellipse 111" cx="0.448" cy="0.448" r="0.448" transform="translate(10.051 2.594)"/>
      <circle id="Ellipse_112" data-name="Ellipse 112" cx="0.448" cy="0.448" r="0.448" transform="translate(15.324 3.233)"/>
      <circle id="Ellipse_113" data-name="Ellipse 113" cx="0.448" cy="0.448" r="0.448" transform="translate(20.788 3.49)"/>
      <circle id="Ellipse_114" data-name="Ellipse 114" cx="0.448" cy="0.448" r="0.448" transform="translate(28.627 2.413)"/>
      <circle id="Ellipse_115" data-name="Ellipse 115" cx="0.448" cy="0.448" r="0.448" transform="translate(26.033 3.042)"/>
      <circle id="Ellipse_116" data-name="Ellipse 116" cx="0.448" cy="0.448" r="0.448" transform="translate(33.481 1.516)"/>
      <circle id="Ellipse_117" data-name="Ellipse 117" cx="0.448" cy="0.448" r="0.448" transform="translate(31.145 1.964)"/>
      <circle id="Ellipse_118" data-name="Ellipse 118" cx="0.448" cy="0.448" r="0.448" transform="translate(36.046 0.629)"/>
      <circle id="Ellipse_119" data-name="Ellipse 119" cx="0.448" cy="0.448" r="0.448" transform="translate(7.6 2.155)"/>
      <circle id="Ellipse_120" data-name="Ellipse 120" cx="0.448" cy="0.448" r="0.448" transform="translate(12.769 3.042)"/>
      <circle id="Ellipse_121" data-name="Ellipse 121" cx="0.448" cy="0.448" r="0.448" transform="translate(18.366 3.49)"/>
      <circle id="Ellipse_122" data-name="Ellipse 122" cx="0.448" cy="0.448" r="0.448" transform="translate(23.459 3.49)"/>
    </g>
    <g id="Group_10" data-name="Group 10" class="cls-14" transform="translate(799.227 389.93)">
      <circle id="Ellipse_123" data-name="Ellipse 123" cx="0.448" cy="0.448" r="0.448"/>
      <circle id="Ellipse_124" data-name="Ellipse 124" cx="0.448" cy="0.448" r="0.448" transform="translate(2.26 0.639)"/>
      <circle id="Ellipse_125" data-name="Ellipse 125" cx="0.448" cy="0.448" r="0.448" transform="translate(5.045 1.526)"/>
      <circle id="Ellipse_126" data-name="Ellipse 126" cx="0.448" cy="0.448" r="0.448" transform="translate(10.051 2.603)"/>
      <circle id="Ellipse_127" data-name="Ellipse 127" cx="0.448" cy="0.448" r="0.448" transform="translate(15.324 3.242)"/>
      <circle id="Ellipse_128" data-name="Ellipse 128" cx="0.448" cy="0.448" r="0.448" transform="translate(20.788 3.49)"/>
      <circle id="Ellipse_129" data-name="Ellipse 129" cx="0.448" cy="0.448" r="0.448" transform="translate(28.627 2.413)"/>
      <circle id="Ellipse_130" data-name="Ellipse 130" cx="0.448" cy="0.448" r="0.448" transform="translate(26.033 3.052)"/>
      <circle id="Ellipse_131" data-name="Ellipse 131" cx="0.448" cy="0.448" r="0.448" transform="translate(33.481 1.526)"/>
      <circle id="Ellipse_132" data-name="Ellipse 132" cx="0.448" cy="0.448" r="0.448" transform="translate(31.145 1.974)"/>
      <circle id="Ellipse_133" data-name="Ellipse 133" cx="0.448" cy="0.448" r="0.448" transform="translate(36.046 0.639)"/>
      <circle id="Ellipse_134" data-name="Ellipse 134" cx="0.448" cy="0.448" r="0.448" transform="translate(7.6 2.155)"/>
      <circle id="Ellipse_135" data-name="Ellipse 135" cx="0.448" cy="0.448" r="0.448" transform="translate(12.769 3.052)"/>
      <circle id="Ellipse_136" data-name="Ellipse 136" cx="0.448" cy="0.448" r="0.448" transform="translate(18.366 3.49)"/>
      <circle id="Ellipse_137" data-name="Ellipse 137" cx="0.448" cy="0.448" r="0.448" transform="translate(23.459 3.49)"/>
    </g>
    <g id="Group_11" data-name="Group 11" class="cls-14" transform="translate(799.227 392.123)">
      <circle id="Ellipse_138" data-name="Ellipse 138" cx="0.448" cy="0.448" r="0.448"/>
      <circle id="Ellipse_139" data-name="Ellipse 139" cx="0.448" cy="0.448" r="0.448" transform="translate(2.26 0.629)"/>
      <circle id="Ellipse_140" data-name="Ellipse 140" cx="0.448" cy="0.448" r="0.448" transform="translate(5.045 1.516)"/>
      <circle id="Ellipse_141" data-name="Ellipse 141" cx="0.448" cy="0.448" r="0.448" transform="translate(10.051 2.594)"/>
      <circle id="Ellipse_142" data-name="Ellipse 142" cx="0.448" cy="0.448" r="0.448" transform="translate(15.324 3.233)"/>
      <circle id="Ellipse_143" data-name="Ellipse 143" cx="0.448" cy="0.448" r="0.448" transform="translate(20.788 3.49)"/>
      <circle id="Ellipse_144" data-name="Ellipse 144" cx="0.448" cy="0.448" r="0.448" transform="translate(28.627 2.413)"/>
      <circle id="Ellipse_145" data-name="Ellipse 145" cx="0.448" cy="0.448" r="0.448" transform="translate(26.033 3.042)"/>
      <circle id="Ellipse_146" data-name="Ellipse 146" cx="0.448" cy="0.448" r="0.448" transform="translate(33.481 1.516)"/>
      <circle id="Ellipse_147" data-name="Ellipse 147" cx="0.448" cy="0.448" r="0.448" transform="translate(31.145 1.964)"/>
      <circle id="Ellipse_148" data-name="Ellipse 148" cx="0.448" cy="0.448" r="0.448" transform="translate(36.046 0.629)"/>
      <circle id="Ellipse_149" data-name="Ellipse 149" cx="0.448" cy="0.448" r="0.448" transform="translate(7.6 2.155)"/>
      <circle id="Ellipse_150" data-name="Ellipse 150" cx="0.448" cy="0.448" r="0.448" transform="translate(12.769 3.042)"/>
      <circle id="Ellipse_151" data-name="Ellipse 151" cx="0.448" cy="0.448" r="0.448" transform="translate(18.366 3.49)"/>
      <circle id="Ellipse_152" data-name="Ellipse 152" cx="0.448" cy="0.448" r="0.448" transform="translate(23.459 3.49)"/>
    </g>
    <g id="Group_12" data-name="Group 12" class="cls-14" transform="translate(799.227 394.307)">
      <circle id="Ellipse_153" data-name="Ellipse 153" cx="0.448" cy="0.448" r="0.448"/>
      <circle id="Ellipse_154" data-name="Ellipse 154" cx="0.448" cy="0.448" r="0.448" transform="translate(2.26 0.639)"/>
      <circle id="Ellipse_155" data-name="Ellipse 155" cx="0.448" cy="0.448" r="0.448" transform="translate(5.045 1.526)"/>
      <circle id="Ellipse_156" data-name="Ellipse 156" cx="0.448" cy="0.448" r="0.448" transform="translate(10.051 2.603)"/>
      <circle id="Ellipse_157" data-name="Ellipse 157" cx="0.448" cy="0.448" r="0.448" transform="translate(15.324 3.242)"/>
      <circle id="Ellipse_158" data-name="Ellipse 158" cx="0.448" cy="0.448" r="0.448" transform="translate(20.788 3.49)"/>
      <circle id="Ellipse_159" data-name="Ellipse 159" cx="0.448" cy="0.448" r="0.448" transform="translate(28.627 2.413)"/>
      <circle id="Ellipse_160" data-name="Ellipse 160" cx="0.448" cy="0.448" r="0.448" transform="translate(26.033 3.052)"/>
      <circle id="Ellipse_161" data-name="Ellipse 161" cx="0.448" cy="0.448" r="0.448" transform="translate(33.481 1.526)"/>
      <circle id="Ellipse_162" data-name="Ellipse 162" cx="0.448" cy="0.448" r="0.448" transform="translate(31.145 1.974)"/>
      <circle id="Ellipse_163" data-name="Ellipse 163" cx="0.448" cy="0.448" r="0.448" transform="translate(36.046 0.639)"/>
      <circle id="Ellipse_164" data-name="Ellipse 164" cx="0.448" cy="0.448" r="0.448" transform="translate(7.6 2.155)"/>
      <circle id="Ellipse_165" data-name="Ellipse 165" cx="0.448" cy="0.448" r="0.448" transform="translate(12.769 3.052)"/>
      <circle id="Ellipse_166" data-name="Ellipse 166" cx="0.448" cy="0.448" r="0.448" transform="translate(18.366 3.49)"/>
      <circle id="Ellipse_167" data-name="Ellipse 167" cx="0.448" cy="0.448" r="0.448" transform="translate(23.459 3.49)"/>
    </g>
    <g id="Group_13" data-name="Group 13" class="cls-14" transform="translate(799.227 396.5)">
      <circle id="Ellipse_168" data-name="Ellipse 168" cx="0.448" cy="0.448" r="0.448"/>
      <circle id="Ellipse_169" data-name="Ellipse 169" cx="0.448" cy="0.448" r="0.448" transform="translate(2.26 0.629)"/>
      <circle id="Ellipse_170" data-name="Ellipse 170" cx="0.448" cy="0.448" r="0.448" transform="translate(5.045 1.526)"/>
      <circle id="Ellipse_171" data-name="Ellipse 171" cx="0.448" cy="0.448" r="0.448" transform="translate(10.051 2.603)"/>
      <circle id="Ellipse_172" data-name="Ellipse 172" cx="0.448" cy="0.448" r="0.448" transform="translate(15.324 3.242)"/>
      <circle id="Ellipse_173" data-name="Ellipse 173" cx="0.448" cy="0.448" r="0.448" transform="translate(20.788 3.49)"/>
      <circle id="Ellipse_174" data-name="Ellipse 174" cx="0.448" cy="0.448" r="0.448" transform="translate(28.627 2.413)"/>
      <circle id="Ellipse_175" data-name="Ellipse 175" cx="0.448" cy="0.448" r="0.448" transform="translate(26.033 3.042)"/>
      <circle id="Ellipse_176" data-name="Ellipse 176" cx="0.448" cy="0.448" r="0.448" transform="translate(33.481 1.526)"/>
      <circle id="Ellipse_177" data-name="Ellipse 177" cx="0.448" cy="0.448" r="0.448" transform="translate(31.145 1.964)"/>
      <circle id="Ellipse_178" data-name="Ellipse 178" cx="0.448" cy="0.448" r="0.448" transform="translate(36.046 0.629)"/>
      <circle id="Ellipse_179" data-name="Ellipse 179" cx="0.448" cy="0.448" r="0.448" transform="translate(7.6 2.155)"/>
      <circle id="Ellipse_180" data-name="Ellipse 180" cx="0.448" cy="0.448" r="0.448" transform="translate(12.769 3.042)"/>
      <circle id="Ellipse_181" data-name="Ellipse 181" cx="0.448" cy="0.448" r="0.448" transform="translate(18.366 3.49)"/>
      <circle id="Ellipse_182" data-name="Ellipse 182" cx="0.448" cy="0.448" r="0.448" transform="translate(23.459 3.49)"/>
    </g>
    <g id="Group_14" data-name="Group 14" class="cls-14" transform="translate(799.227 398.693)">
      <circle id="Ellipse_183" data-name="Ellipse 183" cx="0.448" cy="0.448" r="0.448"/>
      <circle id="Ellipse_184" data-name="Ellipse 184" cx="0.448" cy="0.448" r="0.448" transform="translate(2.26 0.629)"/>
      <circle id="Ellipse_185" data-name="Ellipse 185" cx="0.448" cy="0.448" r="0.448" transform="translate(5.045 1.516)"/>
      <circle id="Ellipse_186" data-name="Ellipse 186" cx="0.448" cy="0.448" r="0.448" transform="translate(10.051 2.594)"/>
      <circle id="Ellipse_187" data-name="Ellipse 187" cx="0.448" cy="0.448" r="0.448" transform="translate(15.324 3.233)"/>
      <circle id="Ellipse_188" data-name="Ellipse 188" cx="0.448" cy="0.448" r="0.448" transform="translate(20.788 3.481)"/>
      <circle id="Ellipse_189" data-name="Ellipse 189" cx="0.448" cy="0.448" r="0.448" transform="translate(28.627 2.403)"/>
      <circle id="Ellipse_190" data-name="Ellipse 190" cx="0.448" cy="0.448" r="0.448" transform="translate(26.033 3.042)"/>
      <circle id="Ellipse_191" data-name="Ellipse 191" cx="0.448" cy="0.448" r="0.448" transform="translate(33.481 1.516)"/>
      <circle id="Ellipse_192" data-name="Ellipse 192" cx="0.448" cy="0.448" r="0.448" transform="translate(31.145 1.964)"/>
      <circle id="Ellipse_193" data-name="Ellipse 193" cx="0.448" cy="0.448" r="0.448" transform="translate(36.046 0.629)"/>
      <circle id="Ellipse_194" data-name="Ellipse 194" cx="0.448" cy="0.448" r="0.448" transform="translate(7.6 2.146)"/>
      <circle id="Ellipse_195" data-name="Ellipse 195" cx="0.448" cy="0.448" r="0.448" transform="translate(12.769 3.042)"/>
      <circle id="Ellipse_196" data-name="Ellipse 196" cx="0.448" cy="0.448" r="0.448" transform="translate(18.366 3.481)"/>
      <circle id="Ellipse_197" data-name="Ellipse 197" cx="0.448" cy="0.448" r="0.448" transform="translate(23.459 3.481)"/>
    </g>
    <g id="Group_15" data-name="Group 15" class="cls-14" transform="translate(799.227 400.877)">
      <circle id="Ellipse_198" data-name="Ellipse 198" cx="0.448" cy="0.448" r="0.448"/>
      <circle id="Ellipse_199" data-name="Ellipse 199" cx="0.448" cy="0.448" r="0.448" transform="translate(2.26 0.629)"/>
      <circle id="Ellipse_200" data-name="Ellipse 200" cx="0.448" cy="0.448" r="0.448" transform="translate(5.045 1.526)"/>
      <circle id="Ellipse_201" data-name="Ellipse 201" cx="0.448" cy="0.448" r="0.448" transform="translate(10.051 2.603)"/>
      <circle id="Ellipse_202" data-name="Ellipse 202" cx="0.448" cy="0.448" r="0.448" transform="translate(15.324 3.242)"/>
      <circle id="Ellipse_203" data-name="Ellipse 203" cx="0.448" cy="0.448" r="0.448" transform="translate(20.788 3.49)"/>
      <circle id="Ellipse_204" data-name="Ellipse 204" cx="0.448" cy="0.448" r="0.448" transform="translate(28.627 2.413)"/>
      <circle id="Ellipse_205" data-name="Ellipse 205" cx="0.448" cy="0.448" r="0.448" transform="translate(26.033 3.042)"/>
      <circle id="Ellipse_206" data-name="Ellipse 206" cx="0.448" cy="0.448" r="0.448" transform="translate(33.481 1.526)"/>
      <circle id="Ellipse_207" data-name="Ellipse 207" cx="0.448" cy="0.448" r="0.448" transform="translate(31.145 1.964)"/>
      <circle id="Ellipse_208" data-name="Ellipse 208" cx="0.448" cy="0.448" r="0.448" transform="translate(36.046 0.629)"/>
      <circle id="Ellipse_209" data-name="Ellipse 209" cx="0.448" cy="0.448" r="0.448" transform="translate(7.6 2.155)"/>
      <circle id="Ellipse_210" data-name="Ellipse 210" cx="0.448" cy="0.448" r="0.448" transform="translate(12.769 3.042)"/>
      <circle id="Ellipse_211" data-name="Ellipse 211" cx="0.448" cy="0.448" r="0.448" transform="translate(18.366 3.49)"/>
      <circle id="Ellipse_212" data-name="Ellipse 212" cx="0.448" cy="0.448" r="0.448" transform="translate(23.459 3.49)"/>
    </g>
    <g id="Group_16" data-name="Group 16" class="cls-14" transform="translate(799.227 403.07)">
      <circle id="Ellipse_213" data-name="Ellipse 213" cx="0.448" cy="0.448" r="0.448"/>
      <circle id="Ellipse_214" data-name="Ellipse 214" cx="0.448" cy="0.448" r="0.448" transform="translate(2.26 0.629)"/>
      <circle id="Ellipse_215" data-name="Ellipse 215" cx="0.448" cy="0.448" r="0.448" transform="translate(5.045 1.516)"/>
      <circle id="Ellipse_216" data-name="Ellipse 216" cx="0.448" cy="0.448" r="0.448" transform="translate(10.051 2.594)"/>
      <circle id="Ellipse_217" data-name="Ellipse 217" cx="0.448" cy="0.448" r="0.448" transform="translate(15.324 3.233)"/>
      <circle id="Ellipse_218" data-name="Ellipse 218" cx="0.448" cy="0.448" r="0.448" transform="translate(20.788 3.49)"/>
      <circle id="Ellipse_219" data-name="Ellipse 219" cx="0.448" cy="0.448" r="0.448" transform="translate(28.627 2.403)"/>
      <circle id="Ellipse_220" data-name="Ellipse 220" cx="0.448" cy="0.448" r="0.448" transform="translate(26.033 3.042)"/>
      <circle id="Ellipse_221" data-name="Ellipse 221" cx="0.448" cy="0.448" r="0.448" transform="translate(33.481 1.516)"/>
      <circle id="Ellipse_222" data-name="Ellipse 222" cx="0.448" cy="0.448" r="0.448" transform="translate(31.145 1.964)"/>
      <circle id="Ellipse_223" data-name="Ellipse 223" cx="0.448" cy="0.448" r="0.448" transform="translate(36.046 0.629)"/>
      <circle id="Ellipse_224" data-name="Ellipse 224" cx="0.448" cy="0.448" r="0.448" transform="translate(7.6 2.155)"/>
      <circle id="Ellipse_225" data-name="Ellipse 225" cx="0.448" cy="0.448" r="0.448" transform="translate(12.769 3.042)"/>
      <circle id="Ellipse_226" data-name="Ellipse 226" cx="0.448" cy="0.448" r="0.448" transform="translate(18.366 3.49)"/>
      <circle id="Ellipse_227" data-name="Ellipse 227" cx="0.448" cy="0.448" r="0.448" transform="translate(23.459 3.49)"/>
    </g>
    <g id="Group_17" data-name="Group 17" class="cls-14" transform="translate(799.227 405.254)">
      <circle id="Ellipse_228" data-name="Ellipse 228" cx="0.448" cy="0.448" r="0.448"/>
      <circle id="Ellipse_229" data-name="Ellipse 229" cx="0.448" cy="0.448" r="0.448" transform="translate(2.26 0.629)"/>
      <circle id="Ellipse_230" data-name="Ellipse 230" cx="0.448" cy="0.448" r="0.448" transform="translate(5.045 1.526)"/>
      <circle id="Ellipse_231" data-name="Ellipse 231" cx="0.448" cy="0.448" r="0.448" transform="translate(10.051 2.603)"/>
      <circle id="Ellipse_232" data-name="Ellipse 232" cx="0.448" cy="0.448" r="0.448" transform="translate(15.324 3.242)"/>
      <circle id="Ellipse_233" data-name="Ellipse 233" cx="0.448" cy="0.448" r="0.448" transform="translate(20.788 3.49)"/>
      <circle id="Ellipse_234" data-name="Ellipse 234" cx="0.448" cy="0.448" r="0.448" transform="translate(28.627 2.413)"/>
      <circle id="Ellipse_235" data-name="Ellipse 235" cx="0.448" cy="0.448" r="0.448" transform="translate(26.033 3.042)"/>
      <circle id="Ellipse_236" data-name="Ellipse 236" cx="0.448" cy="0.448" r="0.448" transform="translate(33.481 1.526)"/>
      <circle id="Ellipse_237" data-name="Ellipse 237" cx="0.448" cy="0.448" r="0.448" transform="translate(31.145 1.964)"/>
      <circle id="Ellipse_238" data-name="Ellipse 238" cx="0.448" cy="0.448" r="0.448" transform="translate(36.046 0.629)"/>
      <circle id="Ellipse_239" data-name="Ellipse 239" cx="0.448" cy="0.448" r="0.448" transform="translate(7.6 2.155)"/>
      <circle id="Ellipse_240" data-name="Ellipse 240" cx="0.448" cy="0.448" r="0.448" transform="translate(12.769 3.042)"/>
      <circle id="Ellipse_241" data-name="Ellipse 241" cx="0.448" cy="0.448" r="0.448" transform="translate(18.366 3.49)"/>
      <circle id="Ellipse_242" data-name="Ellipse 242" cx="0.448" cy="0.448" r="0.448" transform="translate(23.459 3.49)"/>
    </g>
    <g id="Group_18" data-name="Group 18" class="cls-14" transform="translate(799.227 407.447)">
      <circle id="Ellipse_243" data-name="Ellipse 243" cx="0.448" cy="0.448" r="0.448"/>
      <circle id="Ellipse_244" data-name="Ellipse 244" cx="0.448" cy="0.448" r="0.448" transform="translate(2.26 0.629)"/>
      <circle id="Ellipse_245" data-name="Ellipse 245" cx="0.448" cy="0.448" r="0.448" transform="translate(5.045 1.516)"/>
      <circle id="Ellipse_246" data-name="Ellipse 246" cx="0.448" cy="0.448" r="0.448" transform="translate(10.051 2.594)"/>
      <circle id="Ellipse_247" data-name="Ellipse 247" cx="0.448" cy="0.448" r="0.448" transform="translate(15.324 3.233)"/>
      <circle id="Ellipse_248" data-name="Ellipse 248" cx="0.448" cy="0.448" r="0.448" transform="translate(20.788 3.49)"/>
      <circle id="Ellipse_249" data-name="Ellipse 249" cx="0.448" cy="0.448" r="0.448" transform="translate(28.627 2.413)"/>
      <circle id="Ellipse_250" data-name="Ellipse 250" cx="0.448" cy="0.448" r="0.448" transform="translate(26.033 3.042)"/>
      <circle id="Ellipse_251" data-name="Ellipse 251" cx="0.448" cy="0.448" r="0.448" transform="translate(33.481 1.516)"/>
      <circle id="Ellipse_252" data-name="Ellipse 252" cx="0.448" cy="0.448" r="0.448" transform="translate(31.145 1.964)"/>
      <circle id="Ellipse_253" data-name="Ellipse 253" cx="0.448" cy="0.448" r="0.448" transform="translate(36.046 0.629)"/>
      <circle id="Ellipse_254" data-name="Ellipse 254" cx="0.448" cy="0.448" r="0.448" transform="translate(7.6 2.155)"/>
      <circle id="Ellipse_255" data-name="Ellipse 255" cx="0.448" cy="0.448" r="0.448" transform="translate(12.769 3.042)"/>
      <circle id="Ellipse_256" data-name="Ellipse 256" cx="0.448" cy="0.448" r="0.448" transform="translate(18.366 3.49)"/>
      <circle id="Ellipse_257" data-name="Ellipse 257" cx="0.448" cy="0.448" r="0.448" transform="translate(23.459 3.49)"/>
    </g>
    <g id="Group_19" data-name="Group 19" class="cls-14" transform="translate(799.227 409.631)">
      <circle id="Ellipse_258" data-name="Ellipse 258" cx="0.448" cy="0.448" r="0.448"/>
      <circle id="Ellipse_259" data-name="Ellipse 259" cx="0.448" cy="0.448" r="0.448" transform="translate(2.26 0.639)"/>
      <circle id="Ellipse_260" data-name="Ellipse 260" cx="0.448" cy="0.448" r="0.448" transform="translate(5.045 1.526)"/>
      <circle id="Ellipse_261" data-name="Ellipse 261" cx="0.448" cy="0.448" r="0.448" transform="translate(10.051 2.603)"/>
      <circle id="Ellipse_262" data-name="Ellipse 262" cx="0.448" cy="0.448" r="0.448" transform="translate(15.324 3.242)"/>
      <circle id="Ellipse_263" data-name="Ellipse 263" cx="0.448" cy="0.448" r="0.448" transform="translate(20.788 3.49)"/>
      <circle id="Ellipse_264" data-name="Ellipse 264" cx="0.448" cy="0.448" r="0.448" transform="translate(28.627 2.413)"/>
      <circle id="Ellipse_265" data-name="Ellipse 265" cx="0.448" cy="0.448" r="0.448" transform="translate(26.033 3.052)"/>
      <circle id="Ellipse_266" data-name="Ellipse 266" cx="0.448" cy="0.448" r="0.448" transform="translate(33.481 1.526)"/>
      <circle id="Ellipse_267" data-name="Ellipse 267" cx="0.448" cy="0.448" r="0.448" transform="translate(31.145 1.974)"/>
      <circle id="Ellipse_268" data-name="Ellipse 268" cx="0.448" cy="0.448" r="0.448" transform="translate(36.046 0.639)"/>
      <circle id="Ellipse_269" data-name="Ellipse 269" cx="0.448" cy="0.448" r="0.448" transform="translate(7.6 2.155)"/>
      <circle id="Ellipse_270" data-name="Ellipse 270" cx="0.448" cy="0.448" r="0.448" transform="translate(12.769 3.052)"/>
      <circle id="Ellipse_271" data-name="Ellipse 271" cx="0.448" cy="0.448" r="0.448" transform="translate(18.366 3.49)"/>
      <circle id="Ellipse_272" data-name="Ellipse 272" cx="0.448" cy="0.448" r="0.448" transform="translate(23.459 3.49)"/>
    </g>
    <g id="Group_20" data-name="Group 20" class="cls-14" transform="translate(799.227 411.824)">
      <circle id="Ellipse_273" data-name="Ellipse 273" cx="0.448" cy="0.448" r="0.448"/>
      <circle id="Ellipse_274" data-name="Ellipse 274" cx="0.448" cy="0.448" r="0.448" transform="translate(2.26 0.629)"/>
      <circle id="Ellipse_275" data-name="Ellipse 275" cx="0.448" cy="0.448" r="0.448" transform="translate(5.045 1.516)"/>
      <circle id="Ellipse_276" data-name="Ellipse 276" cx="0.448" cy="0.448" r="0.448" transform="translate(10.051 2.594)"/>
      <circle id="Ellipse_277" data-name="Ellipse 277" cx="0.448" cy="0.448" r="0.448" transform="translate(15.324 3.233)"/>
      <circle id="Ellipse_278" data-name="Ellipse 278" cx="0.448" cy="0.448" r="0.448" transform="translate(20.788 3.49)"/>
      <circle id="Ellipse_279" data-name="Ellipse 279" cx="0.448" cy="0.448" r="0.448" transform="translate(28.627 2.413)"/>
      <circle id="Ellipse_280" data-name="Ellipse 280" cx="0.448" cy="0.448" r="0.448" transform="translate(26.033 3.042)"/>
      <circle id="Ellipse_281" data-name="Ellipse 281" cx="0.448" cy="0.448" r="0.448" transform="translate(33.481 1.516)"/>
      <circle id="Ellipse_282" data-name="Ellipse 282" cx="0.448" cy="0.448" r="0.448" transform="translate(31.145 1.964)"/>
      <circle id="Ellipse_283" data-name="Ellipse 283" cx="0.448" cy="0.448" r="0.448" transform="translate(36.046 0.629)"/>
      <circle id="Ellipse_284" data-name="Ellipse 284" cx="0.448" cy="0.448" r="0.448" transform="translate(7.6 2.155)"/>
      <circle id="Ellipse_285" data-name="Ellipse 285" cx="0.448" cy="0.448" r="0.448" transform="translate(12.769 3.042)"/>
      <circle id="Ellipse_286" data-name="Ellipse 286" cx="0.448" cy="0.448" r="0.448" transform="translate(18.366 3.49)"/>
      <circle id="Ellipse_287" data-name="Ellipse 287" cx="0.448" cy="0.448" r="0.448" transform="translate(23.459 3.49)"/>
    </g>
    <g id="Group_21" data-name="Group 21" class="cls-14" transform="translate(799.227 414.008)">
      <circle id="Ellipse_288" data-name="Ellipse 288" cx="0.448" cy="0.448" r="0.448"/>
      <circle id="Ellipse_289" data-name="Ellipse 289" cx="0.448" cy="0.448" r="0.448" transform="translate(2.26 0.639)"/>
      <circle id="Ellipse_290" data-name="Ellipse 290" cx="0.448" cy="0.448" r="0.448" transform="translate(5.045 1.526)"/>
      <circle id="Ellipse_291" data-name="Ellipse 291" cx="0.448" cy="0.448" r="0.448" transform="translate(10.051 2.603)"/>
      <circle id="Ellipse_292" data-name="Ellipse 292" cx="0.448" cy="0.448" r="0.448" transform="translate(15.324 3.242)"/>
      <circle id="Ellipse_293" data-name="Ellipse 293" cx="0.448" cy="0.448" r="0.448" transform="translate(20.788 3.49)"/>
      <circle id="Ellipse_294" data-name="Ellipse 294" cx="0.448" cy="0.448" r="0.448" transform="translate(28.627 2.413)"/>
      <circle id="Ellipse_295" data-name="Ellipse 295" cx="0.448" cy="0.448" r="0.448" transform="translate(26.033 3.052)"/>
      <circle id="Ellipse_296" data-name="Ellipse 296" cx="0.448" cy="0.448" r="0.448" transform="translate(33.481 1.526)"/>
      <circle id="Ellipse_297" data-name="Ellipse 297" cx="0.448" cy="0.448" r="0.448" transform="translate(31.145 1.974)"/>
      <circle id="Ellipse_298" data-name="Ellipse 298" cx="0.448" cy="0.448" r="0.448" transform="translate(36.046 0.639)"/>
      <circle id="Ellipse_299" data-name="Ellipse 299" cx="0.448" cy="0.448" r="0.448" transform="translate(7.6 2.155)"/>
      <circle id="Ellipse_300" data-name="Ellipse 300" cx="0.448" cy="0.448" r="0.448" transform="translate(12.769 3.052)"/>
      <circle id="Ellipse_301" data-name="Ellipse 301" cx="0.448" cy="0.448" r="0.448" transform="translate(18.366 3.49)"/>
      <circle id="Ellipse_302" data-name="Ellipse 302" cx="0.448" cy="0.448" r="0.448" transform="translate(23.459 3.49)"/>
    </g>
    <g id="Group_22" data-name="Group 22" class="cls-14" transform="translate(799.227 416.201)">
      <circle id="Ellipse_303" data-name="Ellipse 303" cx="0.448" cy="0.448" r="0.448"/>
      <circle id="Ellipse_304" data-name="Ellipse 304" cx="0.448" cy="0.448" r="0.448" transform="translate(2.26 0.629)"/>
      <circle id="Ellipse_305" data-name="Ellipse 305" cx="0.448" cy="0.448" r="0.448" transform="translate(5.045 1.526)"/>
      <circle id="Ellipse_306" data-name="Ellipse 306" cx="0.448" cy="0.448" r="0.448" transform="translate(10.051 2.603)"/>
      <circle id="Ellipse_307" data-name="Ellipse 307" cx="0.448" cy="0.448" r="0.448" transform="translate(15.324 3.242)"/>
      <circle id="Ellipse_308" data-name="Ellipse 308" cx="0.448" cy="0.448" r="0.448" transform="translate(20.788 3.49)"/>
      <circle id="Ellipse_309" data-name="Ellipse 309" cx="0.448" cy="0.448" r="0.448" transform="translate(28.627 2.413)"/>
      <circle id="Ellipse_310" data-name="Ellipse 310" cx="0.448" cy="0.448" r="0.448" transform="translate(26.033 3.042)"/>
      <circle id="Ellipse_311" data-name="Ellipse 311" cx="0.448" cy="0.448" r="0.448" transform="translate(33.481 1.526)"/>
      <circle id="Ellipse_312" data-name="Ellipse 312" cx="0.448" cy="0.448" r="0.448" transform="translate(31.145 1.964)"/>
      <circle id="Ellipse_313" data-name="Ellipse 313" cx="0.448" cy="0.448" r="0.448" transform="translate(36.046 0.629)"/>
      <circle id="Ellipse_314" data-name="Ellipse 314" cx="0.448" cy="0.448" r="0.448" transform="translate(7.6 2.155)"/>
      <circle id="Ellipse_315" data-name="Ellipse 315" cx="0.448" cy="0.448" r="0.448" transform="translate(12.769 3.042)"/>
      <circle id="Ellipse_316" data-name="Ellipse 316" cx="0.448" cy="0.448" r="0.448" transform="translate(18.366 3.49)"/>
      <circle id="Ellipse_317" data-name="Ellipse 317" cx="0.448" cy="0.448" r="0.448" transform="translate(23.459 3.49)"/>
    </g>
    <g id="Group_23" data-name="Group 23" class="cls-14" transform="translate(799.227 418.395)">
      <circle id="Ellipse_318" data-name="Ellipse 318" cx="0.448" cy="0.448" r="0.448"/>
      <circle id="Ellipse_319" data-name="Ellipse 319" cx="0.448" cy="0.448" r="0.448" transform="translate(2.26 0.629)"/>
      <circle id="Ellipse_320" data-name="Ellipse 320" cx="0.448" cy="0.448" r="0.448" transform="translate(5.045 1.516)"/>
      <circle id="Ellipse_321" data-name="Ellipse 321" cx="0.448" cy="0.448" r="0.448" transform="translate(10.051 2.594)"/>
      <circle id="Ellipse_322" data-name="Ellipse 322" cx="0.448" cy="0.448" r="0.448" transform="translate(15.324 3.233)"/>
      <circle id="Ellipse_323" data-name="Ellipse 323" cx="0.448" cy="0.448" r="0.448" transform="translate(20.788 3.481)"/>
      <circle id="Ellipse_324" data-name="Ellipse 324" cx="0.448" cy="0.448" r="0.448" transform="translate(28.627 2.403)"/>
      <circle id="Ellipse_325" data-name="Ellipse 325" cx="0.448" cy="0.448" r="0.448" transform="translate(26.033 3.042)"/>
      <circle id="Ellipse_326" data-name="Ellipse 326" cx="0.448" cy="0.448" r="0.448" transform="translate(33.481 1.516)"/>
      <circle id="Ellipse_327" data-name="Ellipse 327" cx="0.448" cy="0.448" r="0.448" transform="translate(31.145 1.964)"/>
      <circle id="Ellipse_328" data-name="Ellipse 328" cx="0.448" cy="0.448" r="0.448" transform="translate(36.046 0.629)"/>
      <circle id="Ellipse_329" data-name="Ellipse 329" cx="0.448" cy="0.448" r="0.448" transform="translate(7.6 2.146)"/>
      <circle id="Ellipse_330" data-name="Ellipse 330" cx="0.448" cy="0.448" r="0.448" transform="translate(12.769 3.042)"/>
      <circle id="Ellipse_331" data-name="Ellipse 331" cx="0.448" cy="0.448" r="0.448" transform="translate(18.366 3.481)"/>
      <circle id="Ellipse_332" data-name="Ellipse 332" cx="0.448" cy="0.448" r="0.448" transform="translate(23.459 3.481)"/>
    </g>
    <g id="Group_24" data-name="Group 24" class="cls-14" transform="translate(799.227 420.578)">
      <circle id="Ellipse_333" data-name="Ellipse 333" cx="0.448" cy="0.448" r="0.448"/>
      <circle id="Ellipse_334" data-name="Ellipse 334" cx="0.448" cy="0.448" r="0.448" transform="translate(2.26 0.629)"/>
      <circle id="Ellipse_335" data-name="Ellipse 335" cx="0.448" cy="0.448" r="0.448" transform="translate(5.045 1.526)"/>
      <circle id="Ellipse_336" data-name="Ellipse 336" cx="0.448" cy="0.448" r="0.448" transform="translate(10.051 2.603)"/>
      <circle id="Ellipse_337" data-name="Ellipse 337" cx="0.448" cy="0.448" r="0.448" transform="translate(15.324 3.242)"/>
      <circle id="Ellipse_338" data-name="Ellipse 338" cx="0.448" cy="0.448" r="0.448" transform="translate(20.788 3.49)"/>
      <circle id="Ellipse_339" data-name="Ellipse 339" cx="0.448" cy="0.448" r="0.448" transform="translate(28.627 2.413)"/>
      <circle id="Ellipse_340" data-name="Ellipse 340" cx="0.448" cy="0.448" r="0.448" transform="translate(26.033 3.042)"/>
      <circle id="Ellipse_341" data-name="Ellipse 341" cx="0.448" cy="0.448" r="0.448" transform="translate(33.481 1.526)"/>
      <circle id="Ellipse_342" data-name="Ellipse 342" cx="0.448" cy="0.448" r="0.448" transform="translate(31.145 1.964)"/>
      <circle id="Ellipse_343" data-name="Ellipse 343" cx="0.448" cy="0.448" r="0.448" transform="translate(36.046 0.629)"/>
      <circle id="Ellipse_344" data-name="Ellipse 344" cx="0.448" cy="0.448" r="0.448" transform="translate(7.6 2.155)"/>
      <circle id="Ellipse_345" data-name="Ellipse 345" cx="0.448" cy="0.448" r="0.448" transform="translate(12.769 3.042)"/>
      <circle id="Ellipse_346" data-name="Ellipse 346" cx="0.448" cy="0.448" r="0.448" transform="translate(18.366 3.49)"/>
      <circle id="Ellipse_347" data-name="Ellipse 347" cx="0.448" cy="0.448" r="0.448" transform="translate(23.459 3.49)"/>
    </g>
    <g id="Group_25" data-name="Group 25" class="cls-14" transform="translate(799.227 422.772)">
      <circle id="Ellipse_348" data-name="Ellipse 348" cx="0.448" cy="0.448" r="0.448"/>
      <circle id="Ellipse_349" data-name="Ellipse 349" cx="0.448" cy="0.448" r="0.448" transform="translate(2.26 0.629)"/>
      <circle id="Ellipse_350" data-name="Ellipse 350" cx="0.448" cy="0.448" r="0.448" transform="translate(5.045 1.516)"/>
      <circle id="Ellipse_351" data-name="Ellipse 351" cx="0.448" cy="0.448" r="0.448" transform="translate(10.051 2.594)"/>
      <circle id="Ellipse_352" data-name="Ellipse 352" cx="0.448" cy="0.448" r="0.448" transform="translate(15.324 3.233)"/>
      <circle id="Ellipse_353" data-name="Ellipse 353" cx="0.448" cy="0.448" r="0.448" transform="translate(20.788 3.481)"/>
      <circle id="Ellipse_354" data-name="Ellipse 354" cx="0.448" cy="0.448" r="0.448" transform="translate(28.627 2.403)"/>
      <circle id="Ellipse_355" data-name="Ellipse 355" cx="0.448" cy="0.448" r="0.448" transform="translate(26.033 3.042)"/>
      <circle id="Ellipse_356" data-name="Ellipse 356" cx="0.448" cy="0.448" r="0.448" transform="translate(33.481 1.516)"/>
      <circle id="Ellipse_357" data-name="Ellipse 357" cx="0.448" cy="0.448" r="0.448" transform="translate(31.145 1.964)"/>
      <circle id="Ellipse_358" data-name="Ellipse 358" cx="0.448" cy="0.448" r="0.448" transform="translate(36.046 0.629)"/>
      <circle id="Ellipse_359" data-name="Ellipse 359" cx="0.448" cy="0.448" r="0.448" transform="translate(7.6 2.155)"/>
      <circle id="Ellipse_360" data-name="Ellipse 360" cx="0.448" cy="0.448" r="0.448" transform="translate(12.769 3.042)"/>
      <circle id="Ellipse_361" data-name="Ellipse 361" cx="0.448" cy="0.448" r="0.448" transform="translate(18.366 3.481)"/>
      <circle id="Ellipse_362" data-name="Ellipse 362" cx="0.448" cy="0.448" r="0.448" transform="translate(23.459 3.481)"/>
    </g>
    <path id="Path_45" data-name="Path 45" class="cls-3" d="M985.166,250.742s13.055-4.882,17.394,5.178l1.221.315,2.737.706c6.914-10.327,25.118,0,25.118,0l25.556,11.3-.953,1.592-25.614-8.935s-3.385,10.49-7.829,13.017-11.662-1.4-11.662-1.4c-4.5-1.8-4.844-9.708-4.768-13.522l-3.872-.772c-.267,3.814-1.678,11.167-8.582,12-9.393,1.125-10.051-7.162-10.051-7.162S983.621,252.507,985.166,250.742Z" transform="translate(-114.752 24.622)"/>
    <path id="Path_46" data-name="Path 46" class="cls-11" d="M994.662,248.643c-.429.954-1.03,2.3-.162,2.918a1.612,1.612,0,0,0,1.3.153c2.756-.6,4.215-3.538,5.369-6.113s2.861-5.455,5.722-5.722c3.309-.277,6.771,3.328,9.536,1.44.839-.572,1.345-1.583,2.279-2a3.71,3.71,0,0,1,2.117-.133,14.857,14.857,0,0,1,12.139,12.721c.143,1.335.419,3.071,1.745,3.28a5.637,5.637,0,0,0,1.478-.172c2.5-.286,4.024,2.594,4.825,4.978,1.087,3.252,2.184,6.675,1.554,10.06-.5,2.661-2.06,5.1-2.146,7.81-.076,2.231.868,4.358,1.793,6.389s2.432,4.415,4.644,4.129c1.812-.238,2.813-2.165,3.69-3.814s2.441-3.347,4.205-2.861c.782.229,1.6.9,2.317.486a1.668,1.668,0,0,0,.677-1.163c.858-3.757-.372-7.972,1.449-11.357,1.4-2.6,4.253-4.015,6.57-5.865a18.786,18.786,0,0,0,2.537-26.911c-2.47-2.861-6.036-5.464-6.237-9.269-.153-2.861,1.812-5.569,1.831-8.468s-1.793-5.35-3.814-7.276a25.013,25.013,0,0,0-22.486-5.922c-2.079.5-4.167,1.278-6.294,1.011-2.46-.305-4.52-1.907-6.732-3.071a17.214,17.214,0,0,0-21.494,5.846c-2.546,3.957-3.538,9.126-7.333,11.9-2.5,1.821-6.065,2.5-7.448,5.264-.83,1.659-.591,3.624-.343,5.464a12.8,12.8,0,0,0,4.081,7.81C994.2,242.644,996.188,245.143,994.662,248.643Z" transform="translate(-114.932 26.817)"/>
    <g id="Group_26" data-name="Group 26" class="cls-15" transform="translate(872.64 247.119)">
      <path id="Path_47" data-name="Path 47" d="M1066.81,223.411a14.174,14.174,0,0,0,.572-2.231,13.217,13.217,0,0,0-.572,2.231Z" transform="translate(-991.242 -221.18)"/>
      <path id="Path_48" data-name="Path 48" d="M995.17,247.483a8.014,8.014,0,0,1,.534-1.43c1.545-3.5-.439-6-2.746-8.354a12.8,12.8,0,0,1-4.081-7.81,19.794,19.794,0,0,1-.229-2.489,5.488,5.488,0,0,0-.505.782c-.83,1.659-.591,3.624-.343,5.464a12.8,12.8,0,0,0,4.081,7.81C993.644,243.23,995.218,245.137,995.17,247.483Z" transform="translate(-987.565 -221.469)"/>
      <path id="Path_49" data-name="Path 49" d="M1058.25,281.514c-1.764-.515-3.328,1.221-4.2,2.861s-1.907,3.538-3.7,3.814c-2.2.286-3.719-2.1-4.644-4.129s-1.907-4.158-1.793-6.389a2.761,2.761,0,0,1,.076-.791,14.7,14.7,0,0,0-1.144,4.549c-.076,2.231.868,4.358,1.793,6.389s2.432,4.415,4.644,4.129c1.812-.238,2.813-2.165,3.69-3.814s2.441-3.347,4.205-2.861c.782.229,1.6.9,2.317.486a1.669,1.669,0,0,0,.677-1.163,14.313,14.313,0,0,0,.315-2.556C1059.824,282.344,1059.042,281.762,1058.25,281.514Z" transform="translate(-990.13 -223.765)"/>
      <path id="Path_50" data-name="Path 50" d="M1070.214,262.627c-2.308,1.85-5.159,3.261-6.57,5.865a9.469,9.469,0,0,0-.953,3.633c1.43-2.527,4.215-3.919,6.494-5.722a19.072,19.072,0,0,0,6.771-11.443A19.074,19.074,0,0,1,1070.214,262.627Z" transform="translate(-991.051 -222.747)"/>
      <path id="Path_51" data-name="Path 51" d="M1042.829,271.252a21.716,21.716,0,0,0,1.021-3.309c.629-3.376-.477-6.809-1.564-10.06-.791-2.384-2.327-5.264-4.768-4.978a5.666,5.666,0,0,1-1.488.172c-1.326-.21-1.6-1.907-1.735-3.28a14.867,14.867,0,0,0-12.139-12.721,3.738,3.738,0,0,0-2.127.133c-.954.42-1.44,1.43-2.27,2-2.737,1.907-6.2-1.716-9.536-1.44-2.8.229-4.53,3.109-5.722,5.722s-2.613,5.512-5.369,6.113a1.612,1.612,0,0,1-1.3-.153,1.03,1.03,0,0,1-.429-.8,6.111,6.111,0,0,1-.486,1.64c-.429.954-1.03,2.3-.162,2.918a1.612,1.612,0,0,0,1.3.153c2.756-.6,4.215-3.538,5.369-6.113s2.861-5.455,5.722-5.722c3.309-.277,6.771,3.328,9.536,1.44.839-.572,1.345-1.583,2.279-2a3.709,3.709,0,0,1,2.117-.133,14.857,14.857,0,0,1,12.139,12.721c.143,1.335.42,3.071,1.745,3.28a5.636,5.636,0,0,0,1.478-.172c2.5-.286,4.024,2.594,4.825,4.978C1042.257,264.749,1043.287,268.02,1042.829,271.252Z" transform="translate(-987.878 -221.913)"/>
    </g>
  </g>
  <path id="Path_96" data-name="Path 96" class="cls-16" d="M820.055,762.126l-7.629-24.279s-6.389-17.232-5.359-26.472-2.146-19.329-2.146-19.329l6.275-32.661s.343-3.557.324-8.249c0-7.82-1.106-18.786-6.523-21.637-8.659-4.568-26.405-43.179-30.124-43.179s-15.677-2.489-15.677-6.675a2.482,2.482,0,0,0,0-.458v-.143a2.141,2.141,0,0,0-.1-.334l-.057-.162-.172-.381-.057-.1a10.178,10.178,0,0,0-1.726-2.26c16.154-3.08,32.232-6.465,48.195-10.4h-.591l.591-.143a54.084,54.084,0,0,1-6.341-.439l-.467.1c-23.478-3.2-44.581-21.561-50.321-44.819-6.37-25.747,4.768-52.62,4.272-79.149a90.9,90.9,0,0,0-14.409-47.279c-1.221-1.907-2.518-3.738-3.872-5.531a36.237,36.237,0,0,0,13.951-53.23c-.41-.591-.839-1.163-1.278-1.726a36.342,36.342,0,0,1-5.931,44.953,36.016,36.016,0,1,0-63.444-34.111c-.771-.342-1.543-.686-2.316-1a36.008,36.008,0,0,1,31.6-23.582c-.715-.048-1.421-.067-2.146-.067a35.979,35.979,0,0,0-33.176,22.181c-10.795-3.957-22.057-5.6-33.138-2.785a36.42,36.42,0,0,0-6.008,2.088l.5-.391a26.806,26.806,0,0,0-7.5,4.768c-3.319,3.061-5.655,7.028-8.468,10.575a44.667,44.667,0,0,1-10.061,9.135c.315-.153.629-.334.954-.5-12.778,9.04-30.143,11.643-44.752,5.826-4.1-1.64-8.058-3.881-12.4-4.482a18.729,18.729,0,0,0-9.812,1.43c.134-.1.258-.219.4-.324a25.661,25.661,0,0,0-10.3,7.724c-4.768,5.884-7.162,13.35-8.868,20.7a67.428,67.428,0,0,0-1.907,15.944c.067,6.885,1.612,13.532,5.722,18.919,6.37,8.258,15.067,10.49,24.145,11.977-.267.954-.524,1.831-.753,2.765a82.009,82.009,0,0,0,56.615,98.85l1.764,2.994.572.133c4.224,7.142,8.849,15.162,13.141,22.886.229.41.448.82.677,1.221l-8.115,4.177h0c-2.127,1.1-7.409,3.967-10.337,6.79a6.874,6.874,0,0,0-1.907,2.7c-1.24,4.158-7.839,14.952-12.4,17.851s-8.258,17.022-7.839,24.479-2.479,6.675-9.908,7.076,0,11.2,0,11.2l.191.725c-.343.591-.734,1.23-1.163,1.907-1.907,2.928-4.415,6.17-6.246,6-3.309-.315-5.369,7.781-5.159,9.021s-5.779,11.2-8.048,12.244-11.968,3.023-9.288,12.311l-11.767,11.977-9.536,9.135s-13.617-7.686-35.7,16.211a19.732,19.732,0,0,1,7.324.687l-.629.305c-5.817,2.756-15.887,7.457-23.335,10.49l-39.66,1.23V707.981s-3.509-8.3-7.629,0l-1.039,29.867-86.205,2.794,16.154-17.165h0l.21-.229a14.142,14.142,0,0,0,3.175-13.989L285.668,497.4h0l-.467-1.488a11.6,11.6,0,0,0-9.488-7.991l-93.624-12.635-.648-.086-8.6,2.336a8.43,8.43,0,0,0-5.874,10.49c2.212,7.629,5.846,20.083,10.49,35.731H164.523l9.908,85.519,6.036,32.9q2.317,12.587,5.407,25.022c4.968,20.026,14.8,62.737,15.019,87.512L128.42,833.722v16.049H591.344a.766.766,0,0,0,.076.153H816.956s-2.47-4.358,2.861-10.585,2.689-30.925,2.689-30.925-2.994-3.948.668-12.664S820.055,762.126,820.055,762.126Zm-575.2-18.643-12.3.4L221.11,669.446C229.587,696.643,237.807,722.523,244.854,743.483Zm316.766,45.239-7.982-16.287a8.877,8.877,0,0,0,5.178-1.383c5.159-3.738,8.249-12.454,8.249-12.454l13.846-16.45,1.144-1.373c2.8,7.829,6.1,14.008,8.744,16.993,6.6,7.476,7.429,29.056,9.46,36.942s.448,4.568,0,9.135a11.93,11.93,0,0,0,.276,3.328C591.411,797.381,578.433,788.474,561.621,788.722Z" transform="translate(-75.059 21.382)"/>
  <path id="Path_97" data-name="Path 97" class="cls-17" d="M93.83,830.181l81.39-88.217,323.27-10.4,56.434,114.508H93.83Z" transform="translate(-35.806 25.238)"/>
  <path id="Path_98" data-name="Path 98" class="cls-9" d="M93.83,830.181l81.39-88.217,323.27-10.4,56.434,114.508H93.83Z" transform="translate(-35.806 25.238)"/>
  <path id="Path_99" data-name="Path 99" class="cls-17" d="M566.059,848.97v3.052a5.95,5.95,0,0,1-5.95,5.95H386.344c-3.29,0,0-6.57,0-6.57l-1.964-43.036a7.1,7.1,0,0,1,5.359-7.209c9.67-2.441,16.326,1.478,16.326,1.478L513.707,799.9a34.509,34.509,0,0,1,6.675.315,29.237,29.237,0,0,1,19.73,11.691l24.736,33.538a5.951,5.951,0,0,1,1.211,3.528Z" transform="translate(-86.936 -0.913)"/>
  <path id="Path_100" data-name="Path 100" class="cls-4" d="M566.084,854.211h0a5.95,5.95,0,0,1-5.95,5.95H386.369c-3.29,0,0-6.57,0-6.57s9.593-4.654,23.84-3.814l126.829-2.746s14.981.343,23.745,1.3A5.941,5.941,0,0,1,566.084,854.211Z" transform="translate(-86.96 -3.102)"/>
  <path id="Path_101" data-name="Path 101" class="cls-7" d="M478.394,783.55H369.36l3.013,33.157,126.295-2.193Z" transform="translate(-48.591 22.826)"/>
  <path id="Path_102" data-name="Path 102" class="cls-17" d="M322.276,830.416v11.51L208.045,846.56s-26.119-1.783-29.323-17.832a14.971,14.971,0,0,1,.1-5.054c1.154-6.761,6.952-18.567,32.508-24.021l31.469-3.233H312.96S322.019,805.489,322.276,830.416Z" transform="translate(-77.385 -0.753)"/>
  <path id="Path_103" data-name="Path 103" class="cls-4" d="M322.276,832.1v11.148l-114.232,4.635s-26.119-1.783-29.323-17.832a14.971,14.971,0,0,1,.1-5.054s15.792,14.933,37.19,12.74l100.547-4.377A56.522,56.522,0,0,0,322.276,832.1Z" transform="translate(-77.385 -2.079)"/>
  <ellipse id="Ellipse_363" data-name="Ellipse 363" class="cls-4" cx="35.121" cy="6.027" rx="35.121" ry="6.027" transform="translate(121.805 808.204) rotate(-2.95)"/>
  <path id="Path_104" data-name="Path 104" class="cls-17" d="M245.381,798.3,226.9,807.436l-19.663-4.654-.1-32.05c1.249-23.392-9.536-70.214-14.867-91.431q-3.08-12.3-5.388-24.794l-6.046-32.565L171,537.32h23.42l13.77,19.72Z" transform="translate(-77.035 11.269)"/>
  <path id="Path_105" data-name="Path 105" class="cls-17" d="M245.728,798.3l-18.481,9.135-11.786-68.449c.229-11.662-14.39-67.028-15.343-69.307C188.464,641.865,178.48,537.36,178.48,537.36h16.3l13.76,19.682Z" transform="translate(-77.382 11.268)"/>
  <path id="Path_106" data-name="Path 106" class="cls-18" d="M245.728,798.3l-18.481,9.135-11.786-68.449c.229-11.662-14.39-67.028-15.343-69.307C188.464,641.865,178.48,537.36,178.48,537.36h16.3l13.76,19.682Z" transform="translate(-77.382 11.268)"/>
  <path id="Path_107" data-name="Path 107" class="cls-17" d="M355.649,732.471l-62.937,66.323-7.381.524-8.992.648a10.137,10.137,0,0,1-9.994-6c-19.072-42.912-80.045-250.405-92.88-294.357a8.335,8.335,0,0,1,5.846-10.394l8.582-2.308.639.076,91.689,12.3a13.97,13.97,0,0,1,11.443,9.593l67.114,209.725a13.961,13.961,0,0,1-3.128,13.865Z" transform="translate(-77.134 13.609)"/>
  <path id="Path_108" data-name="Path 108" class="cls-4" d="M355.649,732.471l-62.937,66.323-7.381.524-8.992.648a10.137,10.137,0,0,1-9.994-6c-19.072-42.912-80.045-250.405-92.88-294.357a8.335,8.335,0,0,1,5.846-10.394l8.582-2.308.639.076,91.689,12.3a13.97,13.97,0,0,1,11.443,9.593l67.114,209.725a13.961,13.961,0,0,1-3.128,13.865Z" transform="translate(-77.134 13.609)"/>
  <path id="Path_109" data-name="Path 109" class="cls-17" d="M356.181,732.7l-62.718,66.122-7.381.524-94.12-301.337A28.752,28.752,0,0,1,189.32,487l93.224,12.511a11.519,11.519,0,0,1,9.441,7.915l67.486,210.888a14.5,14.5,0,0,1-3.29,14.39Z" transform="translate(-77.885 13.604)"/>
  <path id="Path_110" data-name="Path 110" class="cls-7" d="M352.253,722.361a13.981,13.981,0,0,1-2.537,3.147l-61.745,57.407L203.73,503.71l80.894,8.01a14.18,14.18,0,0,1,12.2,10.041l56.825,189.223a14.237,14.237,0,0,1-1.392,11.376Z" transform="translate(-78.554 12.829)"/>
  <path id="Path_111" data-name="Path 111" class="cls-4" d="M356.189,722.75,288.56,512.11a14.18,14.18,0,0,1,12.2,10.041l56.825,189.223a14.237,14.237,0,0,1-1.392,11.376Z" transform="translate(-82.49 12.439)"/>
  <circle id="Ellipse_364" data-name="Ellipse 364" class="cls-19" cx="35.808" cy="35.808" r="35.808" transform="translate(600.517 351.557)"/>
  <path id="Path_112" data-name="Path 112" class="cls-19" d="M701.6,360.937a35.809,35.809,0,0,1,33.678-35.751c-.712,0-1.418-.066-2.133-.066a35.815,35.815,0,1,0,0,71.63c.715,0,1.421,0,2.127-.072A35.808,35.808,0,0,1,701.6,360.937Z" transform="translate(-101.457 21.116)"/>
  <path id="Path_113" data-name="Path 113" class="cls-4" d="M706.463,366.508a35.807,35.807,0,0,1,33.687-35.741c-.7,0-1.417-.067-2.132-.067a35.815,35.815,0,1,0,0,71.63,21.205,21.205,0,0,0,2.136-.081,35.8,35.8,0,0,1-33.691-35.741Z" transform="translate(-101.683 20.857)"/>
  <path id="Path_114" data-name="Path 114" class="cls-20" d="M542.261,787.211a97.094,97.094,0,0,1-10.318,4.7c-9.212,3.624-23.249,7.781-36.323,6.189-21.98-2.67-35.131,4.52-35.131,4.52l-4.93-36.57s16.211-4.768,22.8-5.96c4.94-.954,22.762-9.164,31.316-13.2,2.861-1.335,4.644-2.212,4.644-2.212h16.44Z" transform="translate(-90.239 1.648)"/>
  <path id="Path_115" data-name="Path 115" class="cls-4" d="M544.894,787.211a97.094,97.094,0,0,1-10.318,4.7c-1.116-32.565-13.608-42.235-22.267-45.019,2.861-1.335,4.644-2.212,4.644-2.212h16.44Z" transform="translate(-92.872 1.648)"/>
  <path id="Path_116" data-name="Path 116" class="cls-21" d="M605.391,674.05v80.1l-4.3,5.092L587.31,775.551s-3.08,8.582-8.22,12.32-16.86-1.23-16.86-1.23l-3.29,5.34s-7.39,1.44-10.881,0-12.13,4.11-12.13,4.11c1.24-58.761-30.611-54.031-30.611-54.031,21.98-23.63,35.541-16.03,35.541-16.03l9.46-9.04,11.71-11.863c-2.67-9.183,6.98-11.148,9.24-12.177s8.22-10.89,8.02-12.12,1.84-9.25,5.13-8.935c1.831.172,4.339-3.042,6.227-5.931,1.507-2.327,2.613-4.444,2.613-4.444Z" transform="translate(-92.548 5.506)"/>
  <path id="Path_117" data-name="Path 117" class="cls-21" d="M640.09,590.087l24.221-12.4-1.373,14.523,4.768,14.59s-4.377,11.3-4.921,12.53-10.957,26.987-10.957,26.987l-8.354-10.547Z" transform="translate(-98.801 9.396)"/>
  <path id="Path_118" data-name="Path 118" class="cls-4" d="M604,611.674l-3.395-45.687L624.831,553.6" transform="translate(-59.321 33.496)"/>
  <path id="Path_119" data-name="Path 119" class="cls-20" d="M743.215,571.726s-8.048,11.577-19.072,26.329c-25.652,34.33-67.381,85.824-61.03,48.462.21-1.221.372-2.441.515-3.671-1.564,1.049-5.149.133-9.059-1.726L654.3,641a46.63,46.63,0,0,1-5.569-3.223c-.2-.124-.391-.258-.582-.391-4.339-3.023-7.81-6.561-7.629-9,3.08-53.63,15.563-28.055,19.072-22.1a3.871,3.871,0,0,0,.8,1.116q-.229-.629-.515-1.316c-2.46-6.036-7.162-15.057-12.53-24.7v-.1L646.635,580c-4.463-7.963-9.3-16.287-13.646-23.592l-1.173-1.964c-6.866-11.519-12.206-20.111-12.206-20.111S650.8,505.8,677.093,488.467c21.933-14.485,40.509-21.17,34.568,3.128-3.814,15.62-2.7,28.98.82,40.051.124.41.258.82.4,1.221a64.65,64.65,0,0,0,2.441,6.208,70.51,70.51,0,0,0,4.272,8.106,78.566,78.566,0,0,0,23.621,24.546Z" transform="translate(-97.851 14.14)"/>
  <path id="Path_120" data-name="Path 120" class="cls-18" d="M694.722,528.467c-14.79,16.068-17.937,31.469-41.5,31.469a81.053,81.053,0,0,1-20.321-2.575c-7.428-12.492-13.35-22.076-13.35-22.076s105.106-96.113,92.051-42.74C707.615,508.67,690.9,517.119,694.722,528.467Z" transform="translate(-97.848 14.096)"/>
  <path id="Path_121" data-name="Path 121" class="cls-20" d="M731.871,472.5a80.6,80.6,0,1,1-23.6-57.354,80.96,80.96,0,0,1,23.6,57.354Z" transform="translate(-95.547 18.034)"/>
  <path id="Path_122" data-name="Path 122" class="cls-4" d="M651.49,623.38s1.44,23.01,16.03,21.16,3.49,48.9,3.49,48.9L654.8,708.231l-17.489,5.378s-15.41-4.52-15.2-5.35,6.16-48.891,6.16-48.891l9.04-25.69Z" transform="translate(-97.967 7.276)"/>
  <path id="Path_123" data-name="Path 123" class="cls-17" d="M651.491,625.1s1.44,23.01,16.03,21.17,3.49,48.9,3.49,48.9L654.8,709.961l-17.47,5.34s-15.41-4.52-15.2-5.34,6.16-48.9,6.16-48.9l9.04-25.68Z" transform="translate(-97.968 7.196)"/>
  <path id="Path_124" data-name="Path 124" class="cls-4" d="M609.545,674.049v80.1l-4.3,5.092c-4.434-11.767-7.81-27.721-5.722-42.063,2.718-19.015-2.7-43.351-4.663-51.237,1.507-2.327,2.613-4.444,2.613-4.444Z" transform="translate(-96.703 5.507)"/>
  <path id="Path_125" data-name="Path 125" class="cls-4" d="M654.24,626.441a46.982,46.982,0,0,1-3.481,13.1c-.534,1.268-1.078,2.5-1.621,3.652-4.339-3.023-7.81-6.561-7.629-9,3.08-53.63,15.563-28.055,19.072-22.1C658.865,613.387,655.032,617.2,654.24,626.441Z" transform="translate(-98.867 8.325)"/>
  <path id="Path_126" data-name="Path 126" class="cls-4" d="M661.144,611.144c-2.575-6.322-7.629-15.925-13.284-26.071l.715-.362,13.083,26.109a2.785,2.785,0,0,0-.515.324Z" transform="translate(-99.162 9.07)"/>
  <path id="Path_127" data-name="Path 127" class="cls-4" d="M744.9,575.218s-89.171,128.211-80.1,74.791c.21-1.221.372-2.441.515-3.671-1.6,1.068-5.312.1-9.326-1.85.61-3.566.954-6.008.954-6.008l9.87-27.921s5.722-22.19,4.93-26.7l.267-.181,49.072-32.947h.048A78.567,78.567,0,0,0,744.9,575.218Z" transform="translate(-99.539 10.647)"/>
  <path id="Path_128" data-name="Path 128" class="cls-21" d="M834.413,671.635l-6.99,36.132L806.444,860.219h-182s3.28-26.7,3.28-30.82-3.69-10.27-3.28-14.79,1.984-1.24,0-9.04-2.861-29.18-9.412-36.57-17.289-34.53-14.018-57.5-5.35-53.831-5.35-53.831-7.39-10.69,0-11.1,10.28.372,9.87-7,3.28-21.351,7.8-24.231,11.1-13.56,12.33-17.67a6.9,6.9,0,0,1,1.907-2.68c3.7-3.547,11.224-7.181,11.224-7.181l7.19-3.6v.1l13.045,26.014s-6.1,2.966-7.123,14.876a46.889,46.889,0,0,1-3.481,13.1c-.343.82-.687,1.631-1.039,2.4-1.049,2.327-2.117,4.387-3.023,6.027h0c-1.345,2.432-2.308,3.929-2.308,3.929s-.353,2.784-.887,6.675h0c-1.1,7.991-2.947,20.655-4.043,23.687-.954,2.689-2.861,7.314-3.919,11.443-.668,2.584-1.049,4.978-.7,6.542a1.2,1.2,0,0,0,.1.362c1.23,3.814,7.39-12.588,7.39-12.588s4.52-13.97,6.58-13.97c1.573,0,5.111-19.72,6.675-28.818.458-2.718.734-4.482.734-4.482l9.87-27.931s1.364-5.273,2.67-11.2c1.373-6.237,2.68-13.188,2.26-15.505l.267-.181,49.072-32.947h.048l.753-.505h-.076c-.343,0-1.335-.61-3.233-5.073-.486-1.135-1.03-2.508-1.631-4.205,0,0,15.7-6.3,21.294-1.688a4.989,4.989,0,0,1,.954,1.011,4,4,0,0,1,.41.677c3.7,7.629,5.34,13.35,9.04,18.29a15.9,15.9,0,0,0,1.3,1.5c4.472,4.682,13.35,10.165,11.853,11.653-1.64,1.64,12.33,8.582,12.33,8.582s8.172,4.673,10.738,8.582a3.91,3.91,0,0,1,.763,2.079c0,4.11,11.92,6.57,15.62,6.57s21.37,38.22,29.991,42.74S834.413,671.635,834.413,671.635Z" transform="translate(-96.587 11.211)"/>
  <g id="Group_30" data-name="Group 30" class="cls-15" transform="translate(526.793 549.865)">
    <path id="Path_129" data-name="Path 129" d="M651.553,612.541s-6.1,2.966-7.123,14.876a46.581,46.581,0,0,1-3.49,13.1,83.731,83.731,0,0,1-4.053,8.43h0c-1.345,2.432-2.308,3.929-2.308,3.929s-.353,2.784-.887,6.675h0c-1.068,8.058-2.975,20.722-4.053,23.735-.954,2.689-2.861,7.314-3.919,11.443-.668,2.584-1.049,4.978-.7,6.542a1.2,1.2,0,0,0,.1.362c1.23,3.814,7.39-12.588,7.39-12.588s4.52-13.97,6.58-13.97c.582,0,1.44-2.727,2.365-6.618.467-3.118.954-6.237,1.268-8.849h0c.534-3.91.887-6.675.887-6.675s.544-.839,1.383-2.289c.877-5.025,1.488-8.821,1.488-8.821l9.87-27.931s.715-2.784,1.612-6.57l-10.49-20.855-7.19,3.6h0Z" transform="translate(-624.889 -540.876)"/>
    <path id="Path_130" data-name="Path 130" d="M834.645,642.049c-8.582-4.52-26.291-42.74-29.991-42.74s-15.62-2.46-15.62-6.57-11.5-10.69-11.5-10.69-13.97-6.98-12.33-8.582c1.478-1.488-7.381-6.971-11.853-11.653a17.168,17.168,0,0,1-1.3-1.5c-3.7-4.94-5.34-10.69-9.04-18.29a4.5,4.5,0,0,0-.41-.687,5.55,5.55,0,0,0-.954-1.011c-2.517-2.069-7.057-1.907-11.31-1.163a6.817,6.817,0,0,1,2.27,1.163,5.55,5.55,0,0,1,.954,1.011,4.5,4.5,0,0,1,.41.687c3.7,7.629,5.34,13.35,9.04,18.29a17.16,17.16,0,0,0,1.306,1.459c4.472,4.682,13.35,10.165,11.853,11.653-1.64,1.64,12.33,8.582,12.33,8.582S780,588.59,780,592.7s11.92,6.57,15.62,6.57,21.37,38.22,29.991,42.74,6.17,29.562,6.17,29.562l-7,36.2L803.805,860.223h9.04l20.979-152.452,6.99-36.16S843.275,646.569,834.645,642.049Z" transform="translate(-629.782 -538.657)"/>
  </g>
  <path id="Path_131" data-name="Path 131" class="cls-20" d="M460.659,767.634s-52.267-15.124-55.967,8.1,21.37,36.57,37.391,36.16,23.01-15.62,23.01-15.62Z" transform="translate(-87.862 0.807)"/>
  <path id="Path_132" data-name="Path 132" class="cls-20" d="M728.382,841.311s-11.71,8.42-36.57,8.42-53.831,5.34-53.831,5.34S601,767.96,526.83,842.532c0,0-13.35,17.26,55.881,19.072,0,0,24.45-.82,29.79,11.3H750.773l18.91-14.161Z" transform="translate(-93.498 -1.493)"/>
  <path id="Path_133" data-name="Path 133" class="cls-17" d="M446.03,728.342s-3.49-8.21-7.629,0l-2.241,63.7,4.921,15L446,793.693Z" transform="translate(-89.339 2.575)"/>
  <path id="Path_134" data-name="Path 134" class="cls-4" d="M742.119,541.309c-7.171,2.441-15.038,8.163-17.356,9.956-.429,0-1.907-.954-4.863-9.278C719.891,541.986,737.637,534.862,742.119,541.309Z" transform="translate(-102.505 11.21)"/>
  <path id="Path_135" data-name="Path 135" class="cls-21" d="M660.394,612.539s-6.1,2.966-7.123,14.876a46.883,46.883,0,0,1-3.481,13.1l-4.015,8.439h0l-3.195,10.623h0l.334,21.628-8.354,13.522-.7,6.542L631.7,721.507l-11.1-5.34s4.577-32.632,8.01-39.241,8.02-41.606,8.02-41.606-.21-12.845,1.44-15.1-2.861-1.85-3.29-6.57c-.248-2.8-3.376-10.585-5.884-16.45,3.7-3.547,11.224-7.181,11.224-7.181l7.19-3.6Z" transform="translate(-97.897 8.991)"/>
  <path id="Path_136" data-name="Path 136" class="cls-4" d="M660.394,612.539s-6.1,2.966-7.123,14.876a46.883,46.883,0,0,1-3.481,13.1l-4.015,8.439h0l-3.195,10.623h0l.334,21.628-8.354,13.522-.7,6.542L631.7,721.507l-11.1-5.34s4.577-32.632,8.01-39.241,8.02-41.606,8.02-41.606-.21-12.845,1.44-15.1-2.861-1.85-3.29-6.57c-.248-2.8-3.376-10.585-5.884-16.45,3.7-3.547,11.224-7.181,11.224-7.181l7.19-3.6Z" transform="translate(-97.897 8.991)"/>
  <path id="Path_137" data-name="Path 137" class="cls-4" d="M750.681,563.586c-9.164,7.5-33.805,28.76-36.637,43.217-3.49,17.823-13.97,16.1-13.97,16.1-13.093-28.4-22.1-35.359-27.263-36.342L721.882,553.6h.048l.753-.505h-.1c-.343,0-1.335-.6-3.233-5.064l19.663-5.9a4.989,4.989,0,0,1,.954,1.011,4.421,4.421,0,0,1,.41.677c3.7,7.629,5.34,13.35,9.04,18.29a17.236,17.236,0,0,0,1.268,1.478Z" transform="translate(-100.32 11.046)"/>
  <path id="Path_138" data-name="Path 138" class="cls-21" d="M750.681,561.857c-9.164,7.5-33.805,28.77-36.637,43.227-3.49,17.813-13.97,16.087-13.97,16.087-13.093-28.389-22.1-35.379-27.263-36.332l49.072-32.947h.048l.753-.505h-.1c-.343,0-1.335-.61-3.233-5.073l19.663-5.893a4.991,4.991,0,0,1,.954,1.011,3.992,3.992,0,0,1,.41.677c3.7,7.629,5.34,13.35,9.04,18.29a15.913,15.913,0,0,0,1.268,1.459Z" transform="translate(-100.32 11.126)"/>
  <path id="Path_139" data-name="Path 139" class="cls-4" d="M696.23,713.4c.61-.2,32.632-18.328,28.951-4.539S696.23,713.4,696.23,713.4Z" transform="translate(-101.406 3.55)"/>
  <path id="Path_140" data-name="Path 140" class="cls-4" d="M551,732.08s16.841,26.2,22.8,25.375S551,732.08,551,732.08Z" transform="translate(-94.667 2.232)"/>
  <path id="Path_141" data-name="Path 141" class="cls-4" d="M573,721.85s1.03,20.34,9.87,21.771S573,721.85,573,721.85Z" transform="translate(-95.688 2.707)"/>
  <path id="Path_142" data-name="Path 142" class="cls-4" d="M671,790.36s20.922,34.806,16.85,46.85Z" transform="translate(-100.236 -0.472)"/>
  <path id="Path_143" data-name="Path 143" class="cls-4" d="M696.44,794.67s28.3,37.19,23.4,40.27S696.44,794.67,696.44,794.67Z" transform="translate(-101.416 -0.672)"/>
  <path id="Path_144" data-name="Path 144" class="cls-4" d="M629.693,732.08s-2.909,26.443,8.01,34.129Z" transform="translate(-98.303 2.232)"/>
  <path id="Path_145" data-name="Path 145" class="cls-4" d="M760.789,608.707s-48.452,37.6-40.69,76.641,15.258,41.911,15.258,41.911,2.861,15.61,8.22,22.19,4.52,10.89,4.52,10.89,4.93-2.26,6.57,9.04,10.27,19.31,10.27,19.31,2.861,9.04-4.52,13.97-5.722,10.28-5.722,10.28l-30,17.46,33.414,33.08h86.3s-2.47-4.31,2.861-10.49,2.68-30.61,2.68-30.61-2.985-3.91.668-12.54-3.137-33.281-3.137-33.281l-7.629-24.04s-6.37-17.05-5.34-26.2-2.1-19.139-2.1-19.139L815.85,654.928S816.67,602.747,760.789,608.707Z" transform="translate(-102.475 7.979)"/>
  <path id="Path_146" data-name="Path 146" class="cls-21" d="M762.509,608.707s-48.49,37.6-40.68,76.641,15.2,41.911,15.2,41.911,2.861,15.61,8.22,22.19,4.52,10.89,4.52,10.89,4.93-2.26,6.58,9.04,10.27,19.31,10.27,19.31,2.861,9.04-4.52,13.97-5.722,10.28-5.722,10.28l-30,17.46,33.49,33.08h86.291s-2.46-4.31,2.861-10.49,2.67-30.61,2.67-30.61-2.985-3.91.668-12.54-3.137-33.281-3.137-33.281l-7.629-24.04s-6.37-17.05-5.34-26.2-2.117-19.139-2.117-19.139L817.57,654.928S818.39,602.747,762.509,608.707Z" transform="translate(-102.555 7.979)"/>
  <path id="Path_147" data-name="Path 147" class="cls-4" d="M781.55,636.487s34.52,11.71,43.761,17.47S811.75,631.147,781.55,636.487Z" transform="translate(-105.365 6.699)"/>
  <path id="Path_148" data-name="Path 148" class="cls-4" d="M800.51,822.9s49.1,6.16,46.24,15.82S800.51,822.9,800.51,822.9Z" transform="translate(-106.245 -1.982)"/>
  <path id="Path_149" data-name="Path 149" class="cls-4" d="M790.42,833.88s35.922,11.51,29.562,20.979S790.42,833.88,790.42,833.88Z" transform="translate(-105.777 -2.491)"/>
  <path id="Path_150" data-name="Path 150" class="cls-4" d="M780.949,583.832c-19.6,3.814-39.288,7.076-58.99,10.327l-5.13.849c-10.833,1.783-21.732,3.576-32.718,3.519-5.35,0-10.862-.553-15.61-3.032a17.164,17.164,0,0,1-2.861-1.907c-3.328-2.67-5.722-6.551-5.664-10.766.057-7.686,7.352-13.017,13.627-17.46,9.183-6.513,18.252-14.781,21.8-25.165a28.676,28.676,0,0,0,1.383-6.008c1.049-8.821-2.165-17.527-5.588-25.747-3.738-8.916-8.868-18.5-16.364-23.916a22.485,22.485,0,0,0-10.308-4.167c-11.519-1.526-22.419,6.675-34.024,6.217-9.431-.41-17.441-6.465-23.115-13.589-4.129-5.188-6.742-12.13-12.959-15.21-6.732-3.347-14.39-4.139-21.876-5.254a80.961,80.961,0,1,1,137.642,75.21c.124.41.257.82.4,1.221a64.663,64.663,0,0,0,2.441,6.208s15.7-6.3,21.294-1.688a4.989,4.989,0,0,1,.954,1.011,4,4,0,0,1,.41.677c3.7,7.629,5.34,13.35,9.04,18.29a15.906,15.906,0,0,0,1.3,1.5c4.472,4.682,13.35,10.165,11.853,11.653-1.64,1.64,12.33,8.582,12.33,8.582S778.384,579.9,780.949,583.832Z" transform="translate(-95.667 18.035)"/>
  <path id="Path_151" data-name="Path 151" class="cls-19" d="M547.87,435.717c-7.3-9.422-6.513-22.734-3.814-34.33,1.7-7.314,4.11-14.666,8.84-20.493s12.177-9.908,19.625-8.9c4.358.591,8.3,2.813,12.4,4.434,18.4,7.285,41.234,1.23,53.611-14.228,2.8-3.5,5.121-7.429,8.439-10.49a29.962,29.962,0,0,1,12.95-6.532c20.712-5.226,42.073,5.064,59.791,16.993,15.124,10.184,29.5,22.076,39.431,37.362a89.523,89.523,0,0,1,14.3,46.793c.505,26.319-10.595,52.867-4.244,78.4,6.265,25.223,30.9,44.638,56.882,44.819-35.684,8.754-71.978,14.752-108.224,20.731-10.842,1.793-21.732,3.586-32.718,3.519-5.35,0-10.871-.553-15.61-3.032s-8.582-7.3-8.582-12.645c.057-7.7,7.362-13.017,13.627-17.46,10.89-7.724,21.618-17.918,23.192-31.173,1.049-8.821-2.165-17.537-5.6-25.747-5.235-12.492-13.217-26.329-26.644-28.122-11.51-1.535-22.419,6.675-34.024,6.208-9.422-.41-17.441-6.465-23.115-13.589-4.129-5.188-6.742-12.13-12.95-15.21C580.092,445.443,559.848,451.156,547.87,435.717Z" transform="translate(-94.256 20.25)"/>
  <path id="Path_152" data-name="Path 152" class="cls-19" d="M765.867,387.512a35.808,35.808,0,0,0,10.165-48.042c.439.553.858,1.125,1.268,1.707a35.815,35.815,0,1,1-58.85,40.835c-.4-.594-.788-1.194-1.15-1.8a35.808,35.808,0,0,0,48.567,7.3Z" transform="translate(-102.384 20.45)"/>
  <g id="Group_31" data-name="Group 31" class="cls-15" transform="translate(447.811 367.101)">
    <path id="Path_153" data-name="Path 153" d="M648.473,358.891c2.8-3.509,5.121-7.438,8.439-10.49a21.49,21.49,0,0,1,1.707-1.4,26.377,26.377,0,0,0-7.457,4.682c-3.318,3.032-5.636,6.961-8.439,10.49a44.064,44.064,0,0,1-10,9.1,45.257,45.257,0,0,0,15.753-12.378Z" transform="translate(-546.27 -347)"/>
    <path id="Path_154" data-name="Path 154" d="M723.635,588.305c-10.833,1.783-21.732,3.576-32.718,3.509-5.35,0-10.862-.544-15.61-3.023s-8.582-7.3-8.535-12.654c.057-7.686,7.352-13.007,13.627-17.46,10.89-7.724,21.609-17.918,23.182-31.173,1.049-8.811-2.165-17.537-5.6-25.747-5.235-12.492-13.207-26.338-26.644-28.122-11.51-1.535-22.41,6.675-34.015,6.2-9.422-.4-17.441-6.456-23.115-13.579-4.139-5.188-6.751-12.13-12.959-15.21-15.41-7.629-35.655-1.907-47.68-17.375-7.3-9.422-6.5-22.743-3.814-34.33,1.7-7.314,4.11-14.666,8.83-20.5a26.706,26.706,0,0,1,4.5-4.358,25.6,25.6,0,0,0-10.251,7.629c-4.768,5.826-7.142,13.188-8.84,20.493-2.7,11.615-3.49,24.937,3.814,34.33,11.977,15.439,32.222,9.727,47.68,17.375,6.208,3.09,8.821,10.032,12.95,15.258,5.722,7.114,13.694,13.179,23.115,13.579,11.605.5,22.514-7.743,34.024-6.208,13.427,1.793,21.408,15.629,26.643,28.131,3.433,8.182,6.675,16.9,5.6,25.747-1.573,13.255-12.3,23.449-23.192,31.173-6.265,4.444-13.57,9.774-13.627,17.46,0,5.35,3.814,10.175,8.582,12.654s10.261,2.994,15.61,3.023c10.985.067,21.933-1.726,32.718-3.519,36.237-5.979,72.54-11.968,108.224-20.731a53.559,53.559,0,0,1-6.313-.439C788.031,577.673,755.809,582.994,723.635,588.305Z" transform="translate(-542.063 -348.275)"/>
  </g>
  <ellipse id="Ellipse_365" data-name="Ellipse 365" class="cls-20" cx="15.639" cy="8.544" rx="15.639" ry="8.544" transform="translate(344.571 771.064)"/>
</svg>
